<svg width="296" height="396" viewBox="0 0 296 396" fill="none" xmlns="http://www.w3.org/2000/svg">
<g clip-path="url(#clip0_203_1270)">
<path d="M273.104 93.6063H33.0803C29.863 93.6063 27.2456 90.9889 27.2456 87.7713V5.83469C27.2456 2.61742 29.863 0 33.0803 0H273.104C276.321 0 278.938 2.61742 278.938 5.83469V87.7713C278.938 90.9889 276.321 93.6063 273.104 93.6063ZM33.0803 0.695624C30.2467 0.695624 27.9412 3.00107 27.9412 5.83469V87.7713C27.9412 90.6051 30.2467 92.9107 33.0803 92.9107H273.104C275.937 92.9107 278.243 90.6051 278.243 87.7713V5.83469C278.243 3.00107 275.937 0.695624 273.104 0.695624H33.0803Z" fill="#3F3D56"/>
<path d="M296 191.49H0V192.076H296V191.49Z" fill="#D9D9D9"/>
<path d="M296 161.579H0V162.164H296V161.579Z" fill="#D9D9D9"/>
<path d="M134.896 96.6196C135.108 99.2908 136.659 101.346 138.359 101.211C140.058 101.075 141.264 98.8001 141.051 96.1281C140.98 95.0595 140.655 94.0233 140.102 93.1063L139.059 81.7998L133.763 82.4026L135.354 93.4848C134.953 94.4781 134.796 95.553 134.896 96.6196Z" fill="#FFB6B6"/>
<path d="M128.57 43.8707C128.57 43.8707 133.52 41.2503 136.03 45.1661C138.54 49.082 140.272 91.4325 140.272 91.4325L133.315 92.1752L131.996 62.332L128.57 43.8707V43.8707Z" fill="#D9D9D9"/>
<path d="M118.296 159.369L122.326 159.369L124.243 143.823L118.295 143.824L118.296 159.369Z" fill="#FFB6B6"/>
<path d="M132.104 159.278C132.229 159.489 132.295 160.171 132.295 160.417C132.295 161.172 131.683 161.785 130.927 161.785H118.446C117.931 161.785 117.513 161.367 117.513 160.852V160.332C117.513 160.332 116.896 158.77 118.167 156.845C118.167 156.845 119.747 158.352 122.108 155.992L122.804 154.731L127.843 158.416L130.636 158.76C131.247 158.835 131.789 158.748 132.104 159.278H132.104H132.104Z" fill="#2F2E41"/>
<path d="M141.618 158.702L145.523 157.704L143.533 142.168L137.77 143.64L141.618 158.702Z" fill="#FFB6B6"/>
<path d="M154.974 155.196C155.148 155.369 155.381 156.014 155.442 156.252C155.629 156.984 155.187 157.729 154.455 157.916L142.362 161.005C141.863 161.133 141.354 160.831 141.227 160.332L141.098 159.828C141.098 159.828 140.114 158.468 140.869 156.288C140.869 156.288 142.773 157.358 144.476 154.486L144.838 153.092L150.633 155.415L153.424 155.057C154.035 154.979 154.538 154.761 154.974 155.196H154.974Z" fill="#2F2E41"/>
<path d="M114.961 40.5289L114.77 39.1422L117.041 33.5953L123.282 32.9019L124.629 40.843L114.961 40.5289Z" fill="#FFB6B6"/>
<path opacity="0.1" d="M114.961 40.5289L114.77 39.1422L117.041 33.5953L123.282 32.9019L124.629 40.843L114.961 40.5289Z" fill="black"/>
<path d="M107.681 79.7039L104.908 87.3309L106.988 91.491L117.388 151.814H124.303L122.935 98.4247L138.882 151.814H145.726L140.223 115.759L136.109 82.4773L133.614 80.9359L121.548 74.157L107.681 79.7039Z" fill="#2F2E41"/>
<path d="M125.362 84.9041L121.202 85.5974L115.655 72.4236H128.135L125.362 84.9041Z" fill="#D9D9D9"/>
<path d="M133.682 81.4372L125.362 84.9041L122.588 78.6638L121.202 85.5974L106.641 80.9103L108.721 72.4235L106.641 44.689L113.984 39.7939L114.961 39.1422L123.975 39.8355L124.766 40.2654L130.215 43.3023L131.602 66.1833L133.682 81.4372Z" fill="#2F2E41"/>
<path d="M124.766 40.2654L120.855 56.8229L113.984 39.7939L114.962 39.1422L123.975 39.8355L124.766 40.2654Z" fill="#D9D9D9"/>
<path d="M118.082 39.1422L116.695 41.5304L118.082 42.3265L117.388 56.866L120.162 60.6364L122.935 55.0638L120.855 42.3265L121.548 39.1422H118.082Z" fill="#2F2E41"/>
<path d="M120.162 37.7555C123.8 37.7555 126.749 34.8064 126.749 31.1685C126.749 27.5306 123.8 24.5816 120.162 24.5816C116.524 24.5816 113.575 27.5306 113.575 31.1685C113.575 34.8064 116.524 37.7555 120.162 37.7555Z" fill="#FFB6B6"/>
<path d="M115.952 31.7463L117.375 32.3674L117.996 28.6406C117.996 28.6406 120.481 27.3983 122.344 28.0195C124.208 28.6406 127.314 28.0195 127.314 28.0195C127.314 28.0195 127.314 21.8081 122.966 21.8081C118.618 21.8081 114.27 22.4292 114.27 24.2927C114.27 26.1561 112.406 28.0195 112.406 28.0195C112.406 28.0195 109.922 31.7463 112.406 34.2308C114.891 36.7154 116.133 36.7154 116.133 36.7154L115.952 31.7463Z" fill="#2F2E41"/>
<path d="M103.171 96.4247C103.099 99.1033 104.422 101.312 106.127 101.358C107.832 101.403 109.272 99.269 109.344 96.5894C109.387 95.5194 109.174 94.4546 108.721 93.484L108.884 82.1306L103.554 82.1678L103.96 93.3563C103.456 94.3014 103.185 95.3536 103.171 96.4247V96.4247Z" fill="#FFB6B6"/>
<path d="M109.765 43.2893C109.765 43.2893 105.258 41.9026 103.178 46.0628C101.098 50.2229 103.871 92.518 103.871 92.518H110.867L109.011 62.7035L109.765 43.2893V43.2893Z" fill="#D9D9D9"/>
<path d="M282.652 122.085L265.845 116.94C265.473 116.826 265.083 116.785 264.696 116.818L179.516 124.067C178.302 124.17 177.996 125.808 179.092 126.342L181.821 127.672H181.748V191.304H184.319V128.889L192.87 133.055C193.524 133.373 194.255 133.503 194.979 133.43L195.889 133.338V191.304H198.46V133.079L264.342 126.424V191.304H266.913V126.164L277.84 125.06V191.304H280.411V124.801L282.404 124.599C283.804 124.458 283.997 122.497 282.652 122.085H282.652Z" fill="#3F3D56"/>
<path d="M204.244 123.815C205.851 123.815 229.633 120.923 229.633 120.923L233.168 125.743L208.422 130.564L204.244 123.815Z" fill="white"/>
<path d="M230.345 188.833L226.214 188.826L224.275 172.885L230.374 172.896L230.345 188.833Z" fill="#A0616A"/>
<path d="M216.19 188.715C216.061 188.931 215.991 189.631 215.991 189.883C215.99 190.657 216.616 191.286 217.391 191.287L230.187 191.309C230.715 191.31 231.144 190.883 231.145 190.354L231.146 189.822C231.146 189.822 231.782 188.222 230.482 186.246C230.482 186.246 228.859 187.788 226.443 185.364L225.732 184.07L220.559 187.839L217.695 188.187C217.068 188.263 216.513 188.173 216.19 188.715H216.19L216.19 188.715Z" fill="#2F2E41"/>
<path d="M252.521 181.42L249.261 183.879L238.225 172.476L243.037 168.846L252.521 181.42Z" fill="#A0616A"/>
<path d="M241.297 189.772C241.324 190.019 241.687 190.611 241.837 190.81C242.298 191.421 243.167 191.543 243.778 191.082L253.873 183.466C254.29 183.152 254.373 182.559 254.058 182.142L253.741 181.722C253.741 181.722 253.288 180.082 251.085 179.301C251.085 179.301 250.727 181.484 247.377 181.015L246.045 180.419L244.217 186.475L242.168 188.458C241.719 188.891 241.228 189.152 241.297 189.772L241.297 189.772Z" fill="#2F2E41"/>
<path d="M243.886 99.036C243.886 102.846 240.797 105.935 236.987 105.935C233.177 105.935 230.088 102.846 230.088 99.036C230.088 95.2258 233.177 92.137 236.987 92.137C240.797 92.137 243.886 95.2258 243.886 99.036Z" fill="#A0616A"/>
<path d="M243.236 138.814C243.236 138.814 217.835 137.376 216.397 140.252C214.959 143.128 224.17 182.627 224.17 182.627L232.387 180.905L228.379 153.192C228.379 153.192 249.575 158.806 252.451 152.096C255.327 145.386 254.499 142.888 254.499 142.888L243.236 138.814Z" fill="#2F2E41"/>
<path d="M249.744 133.987C249.744 133.987 224.867 139.32 224.241 142.474C223.615 145.627 242.947 181.283 242.947 181.283L250.416 177.448L239.219 151.783C239.219 151.783 261.146 151.59 262.144 144.358C263.143 137.127 261.683 134.937 261.683 134.937L249.744 133.987Z" fill="#2F2E41"/>
<path d="M252.582 106.943H240.63L232.452 120.362C232.452 120.362 230.535 129.034 232.452 129.97C234.369 130.906 234.369 140.971 234.369 140.971L254.499 142.888C254.499 142.888 257.374 112.694 256.416 109.818C255.457 106.943 252.582 106.943 252.582 106.943Z" fill="#491B6D"/>
<path d="M233.65 115.809L232.452 129.97L218.975 124.251L215.759 122.633C215.129 121.812 214.311 121.153 213.375 120.712C211.045 119.577 208.572 119.858 207.85 121.34C207.128 122.822 208.43 124.943 210.759 126.078C211.683 126.544 212.706 126.782 213.742 126.772L223.153 132.117L223.164 132.096L223.206 132.171L237.964 138.335L241.36 119.745L233.65 115.809H233.65Z" fill="#A0616A"/>
<path d="M232.213 99.9932C232.213 99.9932 225.024 100.952 227.899 94.7212C227.899 94.7212 227.461 91.3437 229.597 91.1154C231.733 90.8871 234.609 87.0529 234.609 87.0529C234.609 87.0529 241.202 83.698 244.615 87.0529C248.029 90.4078 258.093 110.058 258.093 110.058L251.383 117.247C251.383 117.247 247.35 106.643 242.657 107.871C237.964 109.099 233.65 112.762 233.65 112.762C233.65 112.762 228.888 110.378 231.03 108.301C233.171 106.224 232.213 99.9932 232.213 99.9932Z" fill="#2F2E41"/>
<path d="M241.798 110.537C241.798 110.537 238.443 106.224 236.047 109.579C233.65 112.934 231.733 117.247 231.733 117.247L241.319 120.602L241.798 110.537H241.798Z" fill="#491B6D"/>
<path d="M278.193 190.35L267.056 154.953L267.058 154.953H267.083L267.038 154.895L267.037 154.894L266.244 152.373L266.245 152.373C267.453 151.331 268.276 149.843 268.44 148.13L263.349 120.132C263.699 116.455 260.881 113.242 257.188 113.11L245.702 113.081C242.437 112.965 239.609 115.324 239.133 118.557L238.879 120.273L235.36 144.213C235.232 145.074 235.283 145.923 235.485 146.716L232.953 147.047L232.185 147.15L229.148 147.546L229.138 147.549L228.759 147.597H228.348V157.881H228.373V190.752C228.373 190.964 228.547 191.137 228.759 191.137C228.974 191.137 229.148 190.964 229.148 190.752V157.881H233.654L238.15 190.713C238.179 190.906 238.343 191.047 238.535 191.047C238.551 191.047 238.571 191.047 238.587 191.044C238.799 191.015 238.947 190.819 238.918 190.607L234.438 157.881H256.057C258.203 157.881 260.193 157.2 261.812 156.033L270.384 190.653C270.429 190.828 270.586 190.944 270.759 190.944C270.79 190.944 270.823 190.941 270.855 190.933C271.062 190.88 271.187 190.669 271.134 190.462L262.48 155.508C262.595 155.412 262.71 155.309 262.819 155.204L266.26 155.002L277.454 190.583C277.506 190.748 277.659 190.854 277.823 190.854C277.862 190.854 277.901 190.848 277.94 190.836C278.143 190.772 278.257 190.554 278.193 190.35ZM265.509 152.922C265.537 152.906 265.563 152.887 265.589 152.871L265.589 152.871L265.672 153.133L265.509 152.922Z" fill="#D9D9D9"/>
<path d="M59.6726 130.351L67.1676 125.585L70.2147 127.423L59.6726 139.536V130.351Z" fill="#FFB6B6"/>
<path d="M49.4233 111.902C49.4233 111.902 44.445 113.074 46.7877 119.809C49.1304 126.544 56.7442 140.601 59.0869 139.722C61.4296 138.843 61.7224 130.058 61.7224 130.058C61.7224 130.058 61.4296 130.351 60.2582 129.18C59.0869 128.009 59.0869 128.543 59.0869 127.251C59.0869 125.959 58.1288 125.001 58.1288 125.001L57.037 122.737C57.037 122.737 57.037 112.195 52.6445 111.61C48.2519 111.024 49.4233 111.902 49.4233 111.902L49.4233 111.902Z" fill="#D9D9D9"/>
<path d="M72.6818 127.108C74.6259 125.164 75.2285 122.614 74.0277 121.414C72.8269 120.213 70.2775 120.815 68.3334 122.76C66.3893 124.704 65.7867 127.253 66.9874 128.454C68.1882 129.655 70.7377 129.052 72.6818 127.108Z" fill="#FFB6B6"/>
<path d="M30.033 150.704L35.1472 159.168L64.951 157.405L57.0151 147.176L30.033 150.704Z" fill="#D9D9D9"/>
<path d="M38.9383 190.295C38.7648 190.295 38.6135 190.167 38.5893 189.99L29.6835 124.947C29.657 124.754 29.7921 124.576 29.985 124.549C30.1779 124.522 30.3558 124.658 30.3824 124.851L39.2882 189.894C39.3146 190.087 39.1796 190.265 38.9867 190.292C38.9704 190.294 38.9543 190.295 38.9383 190.295Z" fill="#D9D9D9"/>
<path d="M30.0329 190.378C29.8381 190.378 29.6802 190.22 29.6802 190.025V124.911C29.6802 124.717 29.8381 124.559 30.0329 124.559C30.2277 124.559 30.3856 124.717 30.3856 124.911V190.025C30.3856 190.22 30.2277 190.378 30.0329 190.378Z" fill="#D9D9D9"/>
<path d="M74.7385 190.119C74.5886 190.119 74.4495 190.022 74.4021 189.872L53.3279 122.889C53.2694 122.703 53.3727 122.505 53.5585 122.446C53.7442 122.388 53.9424 122.491 54.0007 122.677L75.075 189.66C75.1335 189.846 75.0302 190.044 74.8444 190.102C74.8092 190.113 74.7735 190.119 74.7385 190.119Z" fill="#D9D9D9"/>
<path d="M68.3014 190.201C68.1439 190.201 68.0005 190.095 67.9598 189.936L53.3225 130.818C53.2745 130.629 53.3886 130.437 53.5774 130.389C53.7667 130.342 53.9581 130.455 54.0062 130.644L68.6435 189.762C68.6915 189.95 68.5774 190.142 68.3887 190.19C68.3595 190.198 68.3302 190.201 68.3014 190.201H68.3014Z" fill="#D9D9D9"/>
<path d="M30.033 125.949L54.4579 125.573L58.955 151.233H30.3857L30.033 125.949Z" fill="#D9D9D9"/>
<path d="M67.5682 163.679L61.4126 174.516L68.5597 176.09L71.5394 168.382L67.5682 163.679Z" fill="#FFB6B6"/>
<path d="M63.6236 172.47C63.6236 172.47 63.3844 170.703 61.9782 171.264C60.572 171.825 56.5137 173.909 56.5137 173.909C56.5137 173.909 67.0989 191.109 69.1077 190.307C71.1166 189.506 68.7118 184.644 68.7118 184.644L69.2426 176.05L63.6236 172.47H63.6236Z" fill="#2F2E41"/>
<path d="M40.3454 142.65C40.3454 142.65 38.1491 152.753 44.8844 156.267C51.6196 159.781 74.6073 151.143 74.6073 151.143L64.0652 166.939L71.3861 169.884C71.3861 169.884 88.0778 147.921 86.9065 144.407C85.7351 140.893 77.8285 140.601 77.8285 140.601L59.9655 141.479L55.2801 140.015L40.3454 142.65H40.3454Z" fill="#2F2E41"/>
<path d="M58.4615 168.489L48.7844 176.343L54.869 180.41L60.4492 174.315L58.4615 168.489Z" fill="#FFB6B6"/>
<path d="M51.5882 175.242C51.5882 175.242 52.0085 173.509 50.4946 173.52C48.9807 173.53 44.4421 173.995 44.4421 173.995C44.4421 173.995 48.043 193.867 50.2057 193.852C52.3684 193.837 51.8976 188.433 51.8976 188.433L55.5192 180.621L51.5882 175.242Z" fill="#2F2E41"/>
<path d="M40.7569 138.996C40.7569 138.996 35.035 147.607 40.0298 153.331C45.0246 159.055 69.5799 159.373 69.5799 159.373L54.0126 170.25L59.7597 175.658C59.7597 175.658 83.299 161.275 83.4867 157.575C83.6743 153.876 76.4163 150.726 76.4163 150.726L59.4582 145.044L55.6268 141.976L40.7569 138.996H40.7569Z" fill="#2F2E41"/>
<path d="M55.4563 119.051C55.4563 119.051 49.8924 117.001 47.2569 117.001C47.005 117.001 46.7561 117.03 46.5072 117.083C44.8205 117.44 43.2684 118.89 42.5246 119.68C42.2347 119.991 42.0678 120.199 42.0678 120.199C42.0678 120.199 42.0854 119.997 42.1205 119.642C42.2933 117.78 42.9317 111.668 44.0767 107.756C44.4866 106.359 44.9581 105.243 45.4998 104.702C46.762 103.437 47.3447 101.92 47.6141 100.789C47.8425 99.8201 47.8425 99.1378 47.8425 99.1378L45.7078 98.2182L45.3124 95.6354C45.2421 95.94 44.9171 96.5344 43.8248 97.6736C43.7311 97.7702 43.6286 97.8522 43.5203 97.9225C41.9448 98.9123 38.7324 97.1904 37.0017 96.1069C37.7221 93.6031 39.0282 91.3131 41.4001 90.9383C46.964 90.0598 46.964 86.8386 50.4781 90.3526C50.768 90.6426 51.0608 90.9208 51.3537 91.1902C52.4782 93.3396 52.8881 96.2211 53.0345 98.2241C53.14 99.6268 53.1136 100.602 53.1136 100.602C53.1136 100.602 54.5778 109.387 56.9205 111.144C59.2632 112.901 55.4563 119.051 55.4563 119.051Z" fill="#2F2E41"/>
<path d="M44.6213 104.995L40.6646 110.798L49.5995 113.194V104.995H44.6213Z" fill="#FFB6B6"/>
<path opacity="0.1" d="M44.6213 104.995L40.6646 110.798L49.5995 113.194V104.995H44.6213Z" fill="black"/>
<path d="M50.1554 110.585L41.6631 107.071C41.6631 107.071 30.2424 112.049 31.121 121.713C31.9995 131.376 40.1989 148.068 40.1989 148.068L56.5978 141.04L54.8408 122.298L50.1554 110.585Z" fill="#D9D9D9"/>
<path d="M46.5142 107.586C50.6521 107.586 54.0064 104.231 54.0064 100.093C54.0064 95.9556 50.6521 92.6012 46.5142 92.6012C42.3764 92.6012 39.022 95.9556 39.022 100.093C39.022 104.231 42.3764 107.586 46.5142 107.586Z" fill="#FFB6B6"/>
<path d="M56.6278 97.3807C55.1636 98.8449 53.9922 100.309 53.9922 100.309L53.4066 97.9664C53.4066 97.9664 53.2718 98.066 53.0346 98.2241C52.1064 98.8566 49.6143 100.447 47.6142 100.789C46.724 100.942 45.9333 100.845 45.418 100.309C44.3257 99.17 44.0006 98.5755 43.9304 98.271L43.535 100.854L41.4002 101.773C41.4002 101.773 41.4002 104.989 43.7429 107.337C43.8571 107.451 43.9684 107.592 44.0768 107.756C45.1954 109.443 45.9978 113.572 46.5073 117.083C46.9583 120.204 47.175 122.834 47.175 122.834C47.175 122.834 44.9582 120.058 42.5247 119.68C42.39 119.66 42.2553 119.645 42.1206 119.642C42.0767 119.636 42.0298 119.636 41.9859 119.636C39.3504 119.636 33.7865 121.686 33.7865 121.686C33.7865 121.686 29.9796 115.537 32.3223 113.78C34.665 112.023 36.1292 103.237 36.1292 103.237C36.1292 103.237 36.0325 99.4774 37.0018 96.1069C37.7222 93.6031 39.0283 91.3131 41.4002 90.9383C46.9641 90.0598 46.9641 86.8386 50.4782 90.3526C50.7681 90.6426 51.0609 90.9208 51.3538 91.1902C54.6277 94.2005 57.9719 96.0366 56.6278 97.3807Z" fill="#2F2E41"/>
<path d="M23.7674 136.69H20.9849V191.645H23.7674V136.69Z" fill="#3F3D56"/>
<path d="M91.2429 136.69H88.4604V191.645H91.2429V136.69Z" fill="#3F3D56"/>
<path d="M73.5046 113.387H55.0706V131.821H73.5046V113.387Z" fill="#491B6D"/>
<path d="M44.4451 132.987L51.9401 128.22L54.9872 130.058L44.4451 142.172V132.987Z" fill="#FFB6B6"/>
<path d="M34.1957 114.538C34.1957 114.538 29.2175 115.709 31.5602 122.445C33.9029 129.18 41.5167 143.236 43.8593 142.358C46.202 141.479 46.4949 132.694 46.4949 132.694C46.4949 132.694 46.202 132.987 45.0307 131.815C43.8594 130.644 43.8593 131.179 43.8593 129.887C43.8593 128.594 42.9013 127.636 42.9013 127.636L41.8095 125.373C41.8095 125.373 41.8095 114.831 37.4169 114.245C33.0244 113.66 34.1957 114.538 34.1957 114.538H34.1957Z" fill="#D9D9D9"/>
<path d="M57.4542 129.743C59.3984 127.799 60.001 125.25 58.8002 124.049C57.5994 122.848 55.05 123.451 53.1058 125.395C51.1617 127.339 50.5591 129.889 51.7599 131.089C52.9607 132.29 55.5101 131.688 57.4542 129.743Z" fill="#FFB6B6"/>
<path d="M96.808 134.603H12.6375V140.864H96.808V134.603Z" fill="#3F3D56"/>
<path d="M182.324 84.5184H169.894C168.908 84.5184 168.109 85.3172 168.109 86.3026V91.4294C168.109 92.4148 168.908 93.2137 169.894 93.2137H182.324C183.31 93.2137 184.109 92.4148 184.109 91.4294V86.3026C184.109 85.3172 183.31 84.5184 182.324 84.5184Z" fill="#3F3D56"/>
<path d="M208.41 89.6451H195.98C194.994 89.6451 194.195 90.444 194.195 91.4294V91.4294C194.195 92.4148 194.994 93.2136 195.98 93.2136H208.41C209.396 93.2136 210.195 92.4148 210.195 91.4294V91.4294C210.195 90.444 209.396 89.6451 208.41 89.6451Z" fill="#491B6D"/>
</g>
<circle cx="128" cy="248.852" r="5" fill="#491B6D"/>
<circle cx="148" cy="248.852" r="5" fill="#D9D9D9"/>
<circle cx="168" cy="248.852" r="5" fill="#D9D9D9"/>
<path d="M86.504 315.216L83.21 327.852H79.484L77.468 319.536L75.38 327.852H71.654L68.45 315.216H71.744L73.562 324.414L75.812 315.216H79.196L81.356 324.414L83.192 315.216H86.504ZM97.5156 322.668C97.5156 322.956 97.4976 323.256 97.4616 323.568H90.4956C90.5436 324.192 90.7416 324.672 91.0896 325.008C91.4496 325.332 91.8876 325.494 92.4036 325.494C93.1716 325.494 93.7056 325.17 94.0056 324.522H97.2816C97.1136 325.182 96.8076 325.776 96.3636 326.304C95.9316 326.832 95.3856 327.246 94.7256 327.546C94.0656 327.846 93.3276 327.996 92.5116 327.996C91.5276 327.996 90.6516 327.786 89.8836 327.366C89.1156 326.946 88.5156 326.346 88.0836 325.566C87.6516 324.786 87.4356 323.874 87.4356 322.83C87.4356 321.786 87.6456 320.874 88.0656 320.094C88.4976 319.314 89.0976 318.714 89.8656 318.294C90.6336 317.874 91.5156 317.664 92.5116 317.664C93.4836 317.664 94.3476 317.868 95.1036 318.276C95.8596 318.684 96.4476 319.266 96.8676 320.022C97.2996 320.778 97.5156 321.66 97.5156 322.668ZM94.3656 321.858C94.3656 321.33 94.1856 320.91 93.8256 320.598C93.4656 320.286 93.0156 320.13 92.4756 320.13C91.9596 320.13 91.5216 320.28 91.1616 320.58C90.8136 320.88 90.5976 321.306 90.5136 321.858H94.3656ZM102.217 314.532V327.852H99.1394V314.532H102.217ZM103.836 322.83C103.836 321.786 104.046 320.874 104.466 320.094C104.898 319.314 105.492 318.714 106.248 318.294C107.016 317.874 107.892 317.664 108.876 317.664C110.136 317.664 111.186 317.994 112.026 318.654C112.878 319.314 113.436 320.244 113.7 321.444H110.424C110.148 320.676 109.614 320.292 108.822 320.292C108.258 320.292 107.808 320.514 107.472 320.958C107.136 321.39 106.968 322.014 106.968 322.83C106.968 323.646 107.136 324.276 107.472 324.72C107.808 325.152 108.258 325.368 108.822 325.368C109.614 325.368 110.148 324.984 110.424 324.216H113.7C113.436 325.392 112.878 326.316 112.026 326.988C111.174 327.66 110.124 327.996 108.876 327.996C107.892 327.996 107.016 327.786 106.248 327.366C105.492 326.946 104.898 326.346 104.466 325.566C104.046 324.786 103.836 323.874 103.836 322.83ZM119.918 327.996C118.934 327.996 118.046 327.786 117.254 327.366C116.474 326.946 115.856 326.346 115.4 325.566C114.956 324.786 114.734 323.874 114.734 322.83C114.734 321.798 114.962 320.892 115.418 320.112C115.874 319.32 116.498 318.714 117.29 318.294C118.082 317.874 118.97 317.664 119.954 317.664C120.938 317.664 121.826 317.874 122.618 318.294C123.41 318.714 124.034 319.32 124.49 320.112C124.946 320.892 125.174 321.798 125.174 322.83C125.174 323.862 124.94 324.774 124.472 325.566C124.016 326.346 123.386 326.946 122.582 327.366C121.79 327.786 120.902 327.996 119.918 327.996ZM119.918 325.332C120.506 325.332 121.004 325.116 121.412 324.684C121.832 324.252 122.042 323.634 122.042 322.83C122.042 322.026 121.838 321.408 121.43 320.976C121.034 320.544 120.542 320.328 119.954 320.328C119.354 320.328 118.856 320.544 118.46 320.976C118.064 321.396 117.866 322.014 117.866 322.83C117.866 323.634 118.058 324.252 118.442 324.684C118.838 325.116 119.33 325.332 119.918 325.332ZM139.623 317.7C140.871 317.7 141.861 318.078 142.593 318.834C143.337 319.59 143.709 320.64 143.709 321.984V327.852H140.649V322.398C140.649 321.75 140.475 321.252 140.127 320.904C139.791 320.544 139.323 320.364 138.723 320.364C138.123 320.364 137.649 320.544 137.301 320.904C136.965 321.252 136.797 321.75 136.797 322.398V327.852H133.737V322.398C133.737 321.75 133.563 321.252 133.215 320.904C132.879 320.544 132.411 320.364 131.811 320.364C131.211 320.364 130.737 320.544 130.389 320.904C130.053 321.252 129.885 321.75 129.885 322.398V327.852H126.807V317.808H129.885V319.068C130.197 318.648 130.605 318.318 131.109 318.078C131.613 317.826 132.183 317.7 132.819 317.7C133.575 317.7 134.247 317.862 134.835 318.186C135.435 318.51 135.903 318.972 136.239 319.572C136.587 319.02 137.061 318.57 137.661 318.222C138.261 317.874 138.915 317.7 139.623 317.7ZM155.33 322.668C155.33 322.956 155.312 323.256 155.276 323.568H148.31C148.358 324.192 148.556 324.672 148.904 325.008C149.264 325.332 149.702 325.494 150.218 325.494C150.986 325.494 151.52 325.17 151.82 324.522H155.096C154.928 325.182 154.622 325.776 154.178 326.304C153.746 326.832 153.2 327.246 152.54 327.546C151.88 327.846 151.142 327.996 150.326 327.996C149.342 327.996 148.466 327.786 147.698 327.366C146.93 326.946 146.33 326.346 145.898 325.566C145.466 324.786 145.25 323.874 145.25 322.83C145.25 321.786 145.46 320.874 145.88 320.094C146.312 319.314 146.912 318.714 147.68 318.294C148.448 317.874 149.33 317.664 150.326 317.664C151.298 317.664 152.162 317.868 152.918 318.276C153.674 318.684 154.262 319.266 154.682 320.022C155.114 320.778 155.33 321.66 155.33 322.668ZM152.18 321.858C152.18 321.33 152 320.91 151.64 320.598C151.28 320.286 150.83 320.13 150.29 320.13C149.774 320.13 149.336 320.28 148.976 320.58C148.628 320.88 148.412 321.306 148.328 321.858H152.18ZM166.366 325.242V327.852H164.8C163.684 327.852 162.814 327.582 162.19 327.042C161.566 326.49 161.254 325.596 161.254 324.36V320.364H160.03V317.808H161.254V315.36H164.332V317.808H166.348V320.364H164.332V324.396C164.332 324.696 164.404 324.912 164.548 325.044C164.692 325.176 164.932 325.242 165.268 325.242H166.366ZM172.653 327.996C171.669 327.996 170.781 327.786 169.989 327.366C169.209 326.946 168.591 326.346 168.135 325.566C167.691 324.786 167.469 323.874 167.469 322.83C167.469 321.798 167.697 320.892 168.153 320.112C168.609 319.32 169.233 318.714 170.025 318.294C170.817 317.874 171.705 317.664 172.689 317.664C173.673 317.664 174.561 317.874 175.353 318.294C176.145 318.714 176.769 319.32 177.225 320.112C177.681 320.892 177.909 321.798 177.909 322.83C177.909 323.862 177.675 324.774 177.207 325.566C176.751 326.346 176.121 326.946 175.317 327.366C174.525 327.786 173.637 327.996 172.653 327.996ZM172.653 325.332C173.241 325.332 173.739 325.116 174.147 324.684C174.567 324.252 174.777 323.634 174.777 322.83C174.777 322.026 174.573 321.408 174.165 320.976C173.769 320.544 173.277 320.328 172.689 320.328C172.089 320.328 171.591 320.544 171.195 320.976C170.799 321.396 170.601 322.014 170.601 322.83C170.601 323.634 170.793 324.252 171.177 324.684C171.573 325.116 172.065 325.332 172.653 325.332ZM188.09 315.216C189.422 315.216 190.586 315.48 191.582 316.008C192.578 316.536 193.346 317.28 193.886 318.24C194.438 319.188 194.714 320.286 194.714 321.534C194.714 322.77 194.438 323.868 193.886 324.828C193.346 325.788 192.572 326.532 191.564 327.06C190.568 327.588 189.41 327.852 188.09 327.852H183.356V315.216H188.09ZM187.892 325.188C189.056 325.188 189.962 324.87 190.61 324.234C191.258 323.598 191.582 322.698 191.582 321.534C191.582 320.37 191.258 319.464 190.61 318.816C189.962 318.168 189.056 317.844 187.892 317.844H186.434V325.188H187.892ZM213.822 315.216L210.528 327.852H206.802L204.786 319.536L202.698 327.852H198.972L195.768 315.216H199.062L200.88 324.414L203.13 315.216H206.514L208.674 324.414L210.51 315.216H213.822ZM220.1 315.216C221.432 315.216 222.596 315.48 223.592 316.008C224.588 316.536 225.356 317.28 225.896 318.24C226.448 319.188 226.724 320.286 226.724 321.534C226.724 322.77 226.448 323.868 225.896 324.828C225.356 325.788 224.582 326.532 223.574 327.06C222.578 327.588 221.42 327.852 220.1 327.852H215.366V315.216H220.1ZM219.902 325.188C221.066 325.188 221.972 324.87 222.62 324.234C223.268 323.598 223.592 322.698 223.592 321.534C223.592 320.37 223.268 319.464 222.62 318.816C221.972 318.168 221.066 317.844 219.902 317.844H218.444V325.188H219.902Z" fill="#491B6D"/>
<path d="M42.4589 359.7L39.2269 370.852H37.5949L35.0029 361.876L32.3149 370.852L30.6989 370.868L27.5789 359.7H29.1309L31.5629 369.156L34.2509 359.7H35.8829L38.4429 369.124L40.8909 359.7H42.4589ZM52.0523 366.132C52.0523 366.409 52.0363 366.703 52.0043 367.012H44.9963C45.0496 367.876 45.343 368.553 45.8763 369.044C46.4203 369.524 47.0763 369.764 47.8443 369.764C48.4736 369.764 48.9963 369.62 49.4123 369.332C49.839 369.033 50.1376 368.639 50.3083 368.148H51.8763C51.6416 368.991 51.1723 369.679 50.4683 370.212C49.7643 370.735 48.8896 370.996 47.8443 370.996C47.0123 370.996 46.2656 370.809 45.6043 370.436C44.9536 370.063 44.4416 369.535 44.0683 368.852C43.695 368.159 43.5083 367.359 43.5083 366.452C43.5083 365.545 43.6896 364.751 44.0523 364.068C44.415 363.385 44.9216 362.863 45.5723 362.5C46.2336 362.127 46.991 361.94 47.8443 361.94C48.6763 361.94 49.4123 362.121 50.0523 362.484C50.6923 362.847 51.183 363.348 51.5243 363.988C51.8763 364.617 52.0523 365.332 52.0523 366.132ZM50.5483 365.828C50.5483 365.273 50.4256 364.799 50.1803 364.404C49.935 363.999 49.599 363.695 49.1723 363.492C48.7563 363.279 48.2923 363.172 47.7803 363.172C47.0443 363.172 46.415 363.407 45.8923 363.876C45.3803 364.345 45.087 364.996 45.0123 365.828H50.5483ZM55.4302 359.012V370.852H53.9742V359.012H55.4302ZM57.3677 366.452C57.3677 365.545 57.549 364.756 57.9117 364.084C58.2744 363.401 58.7757 362.873 59.4157 362.5C60.0664 362.127 60.8077 361.94 61.6397 361.94C62.717 361.94 63.6024 362.201 64.2957 362.724C64.9997 363.247 65.4637 363.972 65.6877 364.9H64.1197C63.9704 364.367 63.677 363.945 63.2397 363.636C62.813 363.327 62.2797 363.172 61.6397 363.172C60.8077 363.172 60.1357 363.46 59.6237 364.036C59.1117 364.601 58.8557 365.407 58.8557 366.452C58.8557 367.508 59.1117 368.324 59.6237 368.9C60.1357 369.476 60.8077 369.764 61.6397 369.764C62.2797 369.764 62.813 369.615 63.2397 369.316C63.6664 369.017 63.9597 368.591 64.1197 368.036H65.6877C65.453 368.932 64.9837 369.652 64.2797 370.196C63.5757 370.729 62.6957 370.996 61.6397 370.996C60.8077 370.996 60.0664 370.809 59.4157 370.436C58.7757 370.063 58.2744 369.535 57.9117 368.852C57.549 368.169 57.3677 367.369 57.3677 366.452ZM71.4544 370.996C70.6331 370.996 69.8864 370.809 69.2144 370.436C68.5531 370.063 68.0304 369.535 67.6464 368.852C67.2731 368.159 67.0864 367.359 67.0864 366.452C67.0864 365.556 67.2784 364.767 67.6624 364.084C68.0571 363.391 68.5904 362.863 69.2624 362.5C69.9344 362.127 70.6864 361.94 71.5184 361.94C72.3504 361.94 73.1024 362.127 73.7744 362.5C74.4464 362.863 74.9744 363.385 75.3584 364.068C75.7531 364.751 75.9504 365.545 75.9504 366.452C75.9504 367.359 75.7478 368.159 75.3424 368.852C74.9478 369.535 74.4091 370.063 73.7264 370.436C73.0438 370.809 72.2864 370.996 71.4544 370.996ZM71.4544 369.716C71.9771 369.716 72.4678 369.593 72.9264 369.348C73.3851 369.103 73.7531 368.735 74.0304 368.244C74.3184 367.753 74.4624 367.156 74.4624 366.452C74.4624 365.748 74.3238 365.151 74.0464 364.66C73.7691 364.169 73.4064 363.807 72.9584 363.572C72.5104 363.327 72.0251 363.204 71.5024 363.204C70.9691 363.204 70.4784 363.327 70.0304 363.572C69.5931 363.807 69.2411 364.169 68.9744 364.66C68.7078 365.151 68.5744 365.748 68.5744 366.452C68.5744 367.167 68.7024 367.769 68.9584 368.26C69.2251 368.751 69.5771 369.119 70.0144 369.364C70.4518 369.599 70.9318 369.716 71.4544 369.716ZM88.4088 361.924C89.0915 361.924 89.6995 362.068 90.2328 362.356C90.7661 362.633 91.1875 363.055 91.4968 363.62C91.8061 364.185 91.9608 364.873 91.9608 365.684V370.852H90.5208V365.892C90.5208 365.017 90.3021 364.351 89.8648 363.892C89.4381 363.423 88.8568 363.188 88.1208 363.188C87.3635 363.188 86.7608 363.433 86.3128 363.924C85.8648 364.404 85.6408 365.103 85.6408 366.02V370.852H84.2008V365.892C84.2008 365.017 83.9821 364.351 83.5448 363.892C83.1181 363.423 82.5368 363.188 81.8008 363.188C81.0435 363.188 80.4408 363.433 79.9928 363.924C79.5448 364.404 79.3208 365.103 79.3208 366.02V370.852H77.8648V362.084H79.3208V363.348C79.6088 362.889 79.9928 362.537 80.4728 362.292C80.9635 362.047 81.5021 361.924 82.0888 361.924C82.8248 361.924 83.4755 362.089 84.0408 362.42C84.6061 362.751 85.0275 363.236 85.3048 363.876C85.5501 363.257 85.9555 362.777 86.5208 362.436C87.0861 362.095 87.7155 361.924 88.4088 361.924ZM102.349 366.132C102.349 366.409 102.333 366.703 102.301 367.012H95.2932C95.3465 367.876 95.6399 368.553 96.1732 369.044C96.7172 369.524 97.3732 369.764 98.1412 369.764C98.7705 369.764 99.2932 369.62 99.7092 369.332C100.136 369.033 100.435 368.639 100.605 368.148H102.173C101.939 368.991 101.469 369.679 100.765 370.212C100.061 370.735 99.1865 370.996 98.1412 370.996C97.3092 370.996 96.5625 370.809 95.9012 370.436C95.2505 370.063 94.7385 369.535 94.3652 368.852C93.9919 368.159 93.8052 367.359 93.8052 366.452C93.8052 365.545 93.9865 364.751 94.3492 364.068C94.7119 363.385 95.2185 362.863 95.8692 362.5C96.5305 362.127 97.2879 361.94 98.1412 361.94C98.9732 361.94 99.7092 362.121 100.349 362.484C100.989 362.847 101.48 363.348 101.821 363.988C102.173 364.617 102.349 365.332 102.349 366.132ZM100.845 365.828C100.845 365.273 100.723 364.799 100.477 364.404C100.232 363.999 99.8959 363.695 99.4692 363.492C99.0532 363.279 98.5892 363.172 98.0772 363.172C97.3412 363.172 96.7119 363.407 96.1892 363.876C95.6772 364.345 95.3839 364.996 95.3092 365.828H100.845ZM107.993 366.436C107.993 365.54 108.174 364.756 108.537 364.084C108.899 363.401 109.395 362.873 110.025 362.5C110.665 362.127 111.374 361.94 112.153 361.94C112.921 361.94 113.587 362.105 114.153 362.436C114.718 362.767 115.139 363.183 115.417 363.684V362.084H116.889V370.852H115.417V369.22C115.129 369.732 114.697 370.159 114.121 370.5C113.555 370.831 112.894 370.996 112.137 370.996C111.358 370.996 110.654 370.804 110.025 370.42C109.395 370.036 108.899 369.497 108.537 368.804C108.174 368.111 107.993 367.321 107.993 366.436ZM115.417 366.452C115.417 365.791 115.283 365.215 115.017 364.724C114.75 364.233 114.387 363.86 113.929 363.604C113.481 363.337 112.985 363.204 112.441 363.204C111.897 363.204 111.401 363.332 110.953 363.588C110.505 363.844 110.147 364.217 109.881 364.708C109.614 365.199 109.481 365.775 109.481 366.436C109.481 367.108 109.614 367.695 109.881 368.196C110.147 368.687 110.505 369.065 110.953 369.332C111.401 369.588 111.897 369.716 112.441 369.716C112.985 369.716 113.481 369.588 113.929 369.332C114.387 369.065 114.75 368.687 115.017 368.196C115.283 367.695 115.417 367.113 115.417 366.452ZM122.453 370.996C121.781 370.996 121.179 370.884 120.645 370.66C120.112 370.425 119.691 370.105 119.381 369.7C119.072 369.284 118.901 368.809 118.869 368.276H120.373C120.416 368.713 120.619 369.071 120.981 369.348C121.355 369.625 121.84 369.764 122.437 369.764C122.992 369.764 123.429 369.641 123.749 369.396C124.069 369.151 124.229 368.841 124.229 368.468C124.229 368.084 124.059 367.801 123.717 367.62C123.376 367.428 122.848 367.241 122.133 367.06C121.483 366.889 120.949 366.719 120.533 366.548C120.128 366.367 119.776 366.105 119.477 365.764C119.189 365.412 119.045 364.953 119.045 364.388C119.045 363.94 119.179 363.529 119.445 363.156C119.712 362.783 120.091 362.489 120.581 362.276C121.072 362.052 121.632 361.94 122.261 361.94C123.232 361.94 124.016 362.185 124.613 362.676C125.211 363.167 125.531 363.839 125.573 364.692H124.117C124.085 364.233 123.899 363.865 123.557 363.588C123.227 363.311 122.779 363.172 122.213 363.172C121.691 363.172 121.275 363.284 120.965 363.508C120.656 363.732 120.501 364.025 120.501 364.388C120.501 364.676 120.592 364.916 120.773 365.108C120.965 365.289 121.2 365.439 121.477 365.556C121.765 365.663 122.16 365.785 122.661 365.924C123.291 366.095 123.803 366.265 124.197 366.436C124.592 366.596 124.928 366.841 125.205 367.172C125.493 367.503 125.643 367.935 125.653 368.468C125.653 368.948 125.52 369.38 125.253 369.764C124.987 370.148 124.608 370.452 124.117 370.676C123.637 370.889 123.083 370.996 122.453 370.996ZM139.526 362.084L134.246 374.98H132.742L134.47 370.756L130.934 362.084H132.55L135.302 369.188L138.022 362.084H139.526ZM144.814 370.996C143.992 370.996 143.246 370.809 142.574 370.436C141.912 370.063 141.39 369.535 141.006 368.852C140.632 368.159 140.446 367.359 140.446 366.452C140.446 365.556 140.638 364.767 141.022 364.084C141.416 363.391 141.95 362.863 142.622 362.5C143.294 362.127 144.046 361.94 144.878 361.94C145.71 361.94 146.462 362.127 147.134 362.5C147.806 362.863 148.334 363.385 148.718 364.068C149.112 364.751 149.31 365.545 149.31 366.452C149.31 367.359 149.107 368.159 148.702 368.852C148.307 369.535 147.768 370.063 147.086 370.436C146.403 370.809 145.646 370.996 144.814 370.996ZM144.814 369.716C145.336 369.716 145.827 369.593 146.286 369.348C146.744 369.103 147.112 368.735 147.39 368.244C147.678 367.753 147.822 367.156 147.822 366.452C147.822 365.748 147.683 365.151 147.406 364.66C147.128 364.169 146.766 363.807 146.318 363.572C145.87 363.327 145.384 363.204 144.862 363.204C144.328 363.204 143.838 363.327 143.39 363.572C142.952 363.807 142.6 364.169 142.334 364.66C142.067 365.151 141.934 365.748 141.934 366.452C141.934 367.167 142.062 367.769 142.318 368.26C142.584 368.751 142.936 369.119 143.374 369.364C143.811 369.599 144.291 369.716 144.814 369.716ZM159 362.084V370.852H157.544V369.556C157.267 370.004 156.878 370.356 156.376 370.612C155.886 370.857 155.342 370.98 154.744 370.98C154.062 370.98 153.448 370.841 152.904 370.564C152.36 370.276 151.928 369.849 151.608 369.284C151.299 368.719 151.144 368.031 151.144 367.22V362.084H152.584V367.028C152.584 367.892 152.803 368.559 153.24 369.028C153.678 369.487 154.275 369.716 155.032 369.716C155.811 369.716 156.424 369.476 156.872 368.996C157.32 368.516 157.544 367.817 157.544 366.9V362.084H159ZM167.18 359.012V370.852H165.724V359.012H167.18ZM177.662 366.132C177.662 366.409 177.646 366.703 177.614 367.012H170.606C170.659 367.876 170.952 368.553 171.486 369.044C172.03 369.524 172.686 369.764 173.454 369.764C174.083 369.764 174.606 369.62 175.022 369.332C175.448 369.033 175.747 368.639 175.918 368.148H177.486C177.251 368.991 176.782 369.679 176.078 370.212C175.374 370.735 174.499 370.996 173.454 370.996C172.622 370.996 171.875 370.809 171.214 370.436C170.563 370.063 170.051 369.535 169.678 368.852C169.304 368.159 169.118 367.359 169.118 366.452C169.118 365.545 169.299 364.751 169.662 364.068C170.024 363.385 170.531 362.863 171.182 362.5C171.843 362.127 172.6 361.94 173.454 361.94C174.286 361.94 175.022 362.121 175.662 362.484C176.302 362.847 176.792 363.348 177.134 363.988C177.486 364.617 177.662 365.332 177.662 366.132ZM176.158 365.828C176.158 365.273 176.035 364.799 175.79 364.404C175.544 363.999 175.208 363.695 174.782 363.492C174.366 363.279 173.902 363.172 173.39 363.172C172.654 363.172 172.024 363.407 171.502 363.876C170.99 364.345 170.696 364.996 170.622 365.828H176.158ZM179.04 366.436C179.04 365.54 179.221 364.756 179.584 364.084C179.946 363.401 180.442 362.873 181.072 362.5C181.712 362.127 182.421 361.94 183.2 361.94C183.968 361.94 184.634 362.105 185.2 362.436C185.765 362.767 186.186 363.183 186.464 363.684V362.084H187.936V370.852H186.464V369.22C186.176 369.732 185.744 370.159 185.168 370.5C184.602 370.831 183.941 370.996 183.184 370.996C182.405 370.996 181.701 370.804 181.072 370.42C180.442 370.036 179.946 369.497 179.584 368.804C179.221 368.111 179.04 367.321 179.04 366.436ZM186.464 366.452C186.464 365.791 186.33 365.215 186.064 364.724C185.797 364.233 185.434 363.86 184.976 363.604C184.528 363.337 184.032 363.204 183.488 363.204C182.944 363.204 182.448 363.332 182 363.588C181.552 363.844 181.194 364.217 180.928 364.708C180.661 365.199 180.528 365.775 180.528 366.436C180.528 367.108 180.661 367.695 180.928 368.196C181.194 368.687 181.552 369.065 182 369.332C182.448 369.588 182.944 369.716 183.488 369.716C184.032 369.716 184.528 369.588 184.976 369.332C185.434 369.065 185.797 368.687 186.064 368.196C186.33 367.695 186.464 367.113 186.464 366.452ZM191.852 363.508C192.108 363.007 192.471 362.617 192.94 362.34C193.42 362.063 194.001 361.924 194.684 361.924V363.428H194.3C192.668 363.428 191.852 364.313 191.852 366.084V370.852H190.396V362.084H191.852V363.508ZM200.637 361.924C201.703 361.924 202.567 362.249 203.229 362.9C203.89 363.54 204.221 364.468 204.221 365.684V370.852H202.781V365.892C202.781 365.017 202.562 364.351 202.125 363.892C201.687 363.423 201.09 363.188 200.333 363.188C199.565 363.188 198.951 363.428 198.493 363.908C198.045 364.388 197.821 365.087 197.821 366.004V370.852H196.365V362.084H197.821V363.332C198.109 362.884 198.498 362.537 198.989 362.292C199.49 362.047 200.039 361.924 200.637 361.924ZM210.321 366.436C210.321 365.54 210.502 364.756 210.865 364.084C211.227 363.401 211.723 362.873 212.353 362.5C212.993 362.127 213.702 361.94 214.481 361.94C215.249 361.94 215.915 362.105 216.481 362.436C217.046 362.767 217.467 363.183 217.745 363.684V362.084H219.217V370.852H217.745V369.22C217.457 369.732 217.025 370.159 216.449 370.5C215.883 370.831 215.222 370.996 214.465 370.996C213.686 370.996 212.982 370.804 212.353 370.42C211.723 370.036 211.227 369.497 210.865 368.804C210.502 368.111 210.321 367.321 210.321 366.436ZM217.745 366.452C217.745 365.791 217.611 365.215 217.345 364.724C217.078 364.233 216.715 363.86 216.257 363.604C215.809 363.337 215.313 363.204 214.769 363.204C214.225 363.204 213.729 363.332 213.281 363.588C212.833 363.844 212.475 364.217 212.209 364.708C211.942 365.199 211.809 365.775 211.809 366.436C211.809 367.108 211.942 367.695 212.209 368.196C212.475 368.687 212.833 369.065 213.281 369.332C213.729 369.588 214.225 369.716 214.769 369.716C215.313 369.716 215.809 369.588 216.257 369.332C216.715 369.065 217.078 368.687 217.345 368.196C217.611 367.695 217.745 367.113 217.745 366.452ZM237.623 362.084L234.887 370.852H233.383L231.271 363.892L229.159 370.852H227.655L224.903 362.084H226.391L228.407 369.444L230.583 362.084H232.071L234.199 369.46L236.183 362.084H237.623ZM242.892 370.996C242.071 370.996 241.324 370.809 240.652 370.436C239.991 370.063 239.468 369.535 239.084 368.852C238.711 368.159 238.524 367.359 238.524 366.452C238.524 365.556 238.716 364.767 239.1 364.084C239.495 363.391 240.028 362.863 240.7 362.5C241.372 362.127 242.124 361.94 242.956 361.94C243.788 361.94 244.54 362.127 245.212 362.5C245.884 362.863 246.412 363.385 246.796 364.068C247.191 364.751 247.388 365.545 247.388 366.452C247.388 367.359 247.185 368.159 246.78 368.852C246.385 369.535 245.847 370.063 245.164 370.436C244.481 370.809 243.724 370.996 242.892 370.996ZM242.892 369.716C243.415 369.716 243.905 369.593 244.364 369.348C244.823 369.103 245.191 368.735 245.468 368.244C245.756 367.753 245.9 367.156 245.9 366.452C245.9 365.748 245.761 365.151 245.484 364.66C245.207 364.169 244.844 363.807 244.396 363.572C243.948 363.327 243.463 363.204 242.94 363.204C242.407 363.204 241.916 363.327 241.468 363.572C241.031 363.807 240.679 364.169 240.412 364.66C240.145 365.151 240.012 365.748 240.012 366.452C240.012 367.167 240.14 367.769 240.396 368.26C240.663 368.751 241.015 369.119 241.452 369.364C241.889 369.599 242.369 369.716 242.892 369.716ZM250.758 363.508C251.014 363.007 251.377 362.617 251.846 362.34C252.326 362.063 252.908 361.924 253.59 361.924V363.428H253.206C251.574 363.428 250.758 364.313 250.758 366.084V370.852H249.302V362.084H250.758V363.508ZM256.727 359.012V370.852H255.271V359.012H256.727ZM258.665 366.436C258.665 365.54 258.846 364.756 259.209 364.084C259.571 363.401 260.067 362.873 260.697 362.5C261.337 362.127 262.051 361.94 262.841 361.94C263.523 361.94 264.158 362.1 264.745 362.42C265.331 362.729 265.779 363.14 266.089 363.652V359.012H267.561V370.852H266.089V369.204C265.801 369.727 265.374 370.159 264.809 370.5C264.243 370.831 263.582 370.996 262.825 370.996C262.046 370.996 261.337 370.804 260.697 370.42C260.067 370.036 259.571 369.497 259.209 368.804C258.846 368.111 258.665 367.321 258.665 366.436ZM266.089 366.452C266.089 365.791 265.955 365.215 265.689 364.724C265.422 364.233 265.059 363.86 264.601 363.604C264.153 363.337 263.657 363.204 263.113 363.204C262.569 363.204 262.073 363.332 261.625 363.588C261.177 363.844 260.819 364.217 260.553 364.708C260.286 365.199 260.153 365.775 260.153 366.436C260.153 367.108 260.286 367.695 260.553 368.196C260.819 368.687 261.177 369.065 261.625 369.332C262.073 369.588 262.569 369.716 263.113 369.716C263.657 369.716 264.153 369.588 264.601 369.332C265.059 369.065 265.422 368.687 265.689 368.196C265.955 367.695 266.089 367.113 266.089 366.452ZM18.2427 386.452C18.2427 385.545 18.424 384.756 18.7867 384.084C19.1494 383.401 19.6507 382.873 20.2907 382.5C20.9414 382.127 21.6827 381.94 22.5147 381.94C23.592 381.94 24.4774 382.201 25.1707 382.724C25.8747 383.247 26.3387 383.972 26.5627 384.9H24.9947C24.8454 384.367 24.552 383.945 24.1147 383.636C23.688 383.327 23.1547 383.172 22.5147 383.172C21.6827 383.172 21.0107 383.46 20.4987 384.036C19.9867 384.601 19.7307 385.407 19.7307 386.452C19.7307 387.508 19.9867 388.324 20.4987 388.9C21.0107 389.476 21.6827 389.764 22.5147 389.764C23.1547 389.764 23.688 389.615 24.1147 389.316C24.5414 389.017 24.8347 388.591 24.9947 388.036H26.5627C26.328 388.932 25.8587 389.652 25.1547 390.196C24.4507 390.729 23.5707 390.996 22.5147 390.996C21.6827 390.996 20.9414 390.809 20.2907 390.436C19.6507 390.063 19.1494 389.535 18.7867 388.852C18.424 388.169 18.2427 387.369 18.2427 386.452ZM32.8574 381.924C33.5188 381.924 34.1161 382.068 34.6494 382.356C35.1828 382.633 35.5988 383.055 35.8974 383.62C36.2068 384.185 36.3614 384.873 36.3614 385.684V390.852H34.9214V385.892C34.9214 385.017 34.7028 384.351 34.2654 383.892C33.8281 383.423 33.2308 383.188 32.4734 383.188C31.7054 383.188 31.0921 383.428 30.6334 383.908C30.1854 384.388 29.9614 385.087 29.9614 386.004V390.852H28.5054V379.012H29.9614V383.332C30.2494 382.884 30.6441 382.537 31.1454 382.292C31.6574 382.047 32.2281 381.924 32.8574 381.924ZM38.1958 386.436C38.1958 385.54 38.3771 384.756 38.7398 384.084C39.1025 383.401 39.5985 382.873 40.2278 382.5C40.8678 382.127 41.5771 381.94 42.3558 381.94C43.1238 381.94 43.7905 382.105 44.3558 382.436C44.9211 382.767 45.3425 383.183 45.6198 383.684V382.084H47.0918V390.852H45.6198V389.22C45.3318 389.732 44.8998 390.159 44.3238 390.5C43.7585 390.831 43.0971 390.996 42.3398 390.996C41.5611 390.996 40.8571 390.804 40.2278 390.42C39.5985 390.036 39.1025 389.497 38.7398 388.804C38.3771 388.111 38.1958 387.321 38.1958 386.436ZM45.6198 386.452C45.6198 385.791 45.4865 385.215 45.2198 384.724C44.9531 384.233 44.5905 383.86 44.1318 383.604C43.6838 383.337 43.1878 383.204 42.6438 383.204C42.0998 383.204 41.6038 383.332 41.1558 383.588C40.7078 383.844 40.3505 384.217 40.0838 384.708C39.8171 385.199 39.6838 385.775 39.6838 386.436C39.6838 387.108 39.8171 387.695 40.0838 388.196C40.3505 388.687 40.7078 389.065 41.1558 389.332C41.6038 389.588 42.0998 389.716 42.6438 389.716C43.1878 389.716 43.6838 389.588 44.1318 389.332C44.5905 389.065 44.9531 388.687 45.2198 388.196C45.4865 387.695 45.6198 387.113 45.6198 386.452ZM53.8243 381.924C54.891 381.924 55.755 382.249 56.4163 382.9C57.0776 383.54 57.4083 384.468 57.4083 385.684V390.852H55.9683V385.892C55.9683 385.017 55.7496 384.351 55.3123 383.892C54.875 383.423 54.2776 383.188 53.5203 383.188C52.7523 383.188 52.139 383.428 51.6803 383.908C51.2323 384.388 51.0083 385.087 51.0083 386.004V390.852H49.5523V382.084H51.0083V383.332C51.2963 382.884 51.6856 382.537 52.1763 382.292C52.6776 382.047 53.227 381.924 53.8243 381.924ZM63.4027 381.94C64.16 381.94 64.8214 382.105 65.3867 382.436C65.9627 382.767 66.3894 383.183 66.6667 383.684V382.084H68.1387V391.044C68.1387 391.844 67.968 392.553 67.6267 393.172C67.2854 393.801 66.7947 394.292 66.1547 394.644C65.5254 394.996 64.7894 395.172 63.9467 395.172C62.7947 395.172 61.8347 394.9 61.0667 394.356C60.2987 393.812 59.8454 393.071 59.7067 392.132H61.1467C61.3067 392.665 61.6374 393.092 62.1387 393.412C62.64 393.743 63.2427 393.908 63.9467 393.908C64.7467 393.908 65.3974 393.657 65.8987 393.156C66.4107 392.655 66.6667 391.951 66.6667 391.044V389.204C66.3787 389.716 65.952 390.143 65.3867 390.484C64.8214 390.825 64.16 390.996 63.4027 390.996C62.624 390.996 61.9147 390.804 61.2747 390.42C60.6454 390.036 60.1494 389.497 59.7867 388.804C59.424 388.111 59.2427 387.321 59.2427 386.436C59.2427 385.54 59.424 384.756 59.7867 384.084C60.1494 383.401 60.6454 382.873 61.2747 382.5C61.9147 382.127 62.624 381.94 63.4027 381.94ZM66.6667 386.452C66.6667 385.791 66.5334 385.215 66.2667 384.724C66 384.233 65.6374 383.86 65.1787 383.604C64.7307 383.337 64.2347 383.204 63.6907 383.204C63.1467 383.204 62.6507 383.332 62.2027 383.588C61.7547 383.844 61.3974 384.217 61.1307 384.708C60.864 385.199 60.7307 385.775 60.7307 386.436C60.7307 387.108 60.864 387.695 61.1307 388.196C61.3974 388.687 61.7547 389.065 62.2027 389.332C62.6507 389.588 63.1467 389.716 63.6907 389.716C64.2347 389.716 64.7307 389.588 65.1787 389.332C65.6374 389.065 66 388.687 66.2667 388.196C66.5334 387.695 66.6667 387.113 66.6667 386.452ZM71.3512 380.66C71.0739 380.66 70.8392 380.564 70.6472 380.372C70.4552 380.18 70.3592 379.945 70.3592 379.668C70.3592 379.391 70.4552 379.156 70.6472 378.964C70.8392 378.772 71.0739 378.676 71.3512 378.676C71.6179 378.676 71.8419 378.772 72.0232 378.964C72.2152 379.156 72.3112 379.391 72.3112 379.668C72.3112 379.945 72.2152 380.18 72.0232 380.372C71.8419 380.564 71.6179 380.66 71.3512 380.66ZM72.0552 382.084V390.852H70.5992V382.084H72.0552ZM78.8087 381.924C79.8754 381.924 80.7394 382.249 81.4007 382.9C82.062 383.54 82.3927 384.468 82.3927 385.684V390.852H80.9527V385.892C80.9527 385.017 80.734 384.351 80.2967 383.892C79.8594 383.423 79.262 383.188 78.5047 383.188C77.7367 383.188 77.1234 383.428 76.6647 383.908C76.2167 384.388 75.9927 385.087 75.9927 386.004V390.852H74.5367V382.084H75.9927V383.332C76.2807 382.884 76.67 382.537 77.1607 382.292C77.662 382.047 78.2114 381.924 78.8087 381.924ZM88.3871 381.94C89.1444 381.94 89.8057 382.105 90.3711 382.436C90.9471 382.767 91.3737 383.183 91.6511 383.684V382.084H93.1231V391.044C93.1231 391.844 92.9524 392.553 92.6111 393.172C92.2697 393.801 91.7791 394.292 91.1391 394.644C90.5097 394.996 89.7737 395.172 88.9311 395.172C87.7791 395.172 86.8191 394.9 86.0511 394.356C85.2831 393.812 84.8297 393.071 84.6911 392.132H86.1311C86.2911 392.665 86.6217 393.092 87.1231 393.412C87.6244 393.743 88.2271 393.908 88.9311 393.908C89.7311 393.908 90.3817 393.657 90.8831 393.156C91.3951 392.655 91.6511 391.951 91.6511 391.044V389.204C91.3631 389.716 90.9364 390.143 90.3711 390.484C89.8057 390.825 89.1444 390.996 88.3871 390.996C87.6084 390.996 86.8991 390.804 86.2591 390.42C85.6297 390.036 85.1337 389.497 84.7711 388.804C84.4084 388.111 84.2271 387.321 84.2271 386.436C84.2271 385.54 84.4084 384.756 84.7711 384.084C85.1337 383.401 85.6297 382.873 86.2591 382.5C86.8991 382.127 87.6084 381.94 88.3871 381.94ZM91.6511 386.452C91.6511 385.791 91.5177 385.215 91.2511 384.724C90.9844 384.233 90.6217 383.86 90.1631 383.604C89.7151 383.337 89.2191 383.204 88.6751 383.204C88.1311 383.204 87.6351 383.332 87.1871 383.588C86.7391 383.844 86.3817 384.217 86.1151 384.708C85.8484 385.199 85.7151 385.775 85.7151 386.436C85.7151 387.108 85.8484 387.695 86.1151 388.196C86.3817 388.687 86.7391 389.065 87.1871 389.332C87.6351 389.588 88.1311 389.716 88.6751 389.716C89.2191 389.716 89.7151 389.588 90.1631 389.332C90.6217 389.065 90.9844 388.687 91.2511 388.196C91.5177 387.695 91.6511 387.113 91.6511 386.452ZM102.953 390.996C102.281 390.996 101.679 390.884 101.145 390.66C100.612 390.425 100.191 390.105 99.8812 389.7C99.5719 389.284 99.4012 388.809 99.3692 388.276H100.873C100.916 388.713 101.119 389.071 101.481 389.348C101.855 389.625 102.34 389.764 102.937 389.764C103.492 389.764 103.929 389.641 104.249 389.396C104.569 389.151 104.729 388.841 104.729 388.468C104.729 388.084 104.559 387.801 104.217 387.62C103.876 387.428 103.348 387.241 102.633 387.06C101.983 386.889 101.449 386.719 101.033 386.548C100.628 386.367 100.276 386.105 99.9772 385.764C99.6892 385.412 99.5452 384.953 99.5452 384.388C99.5452 383.94 99.6785 383.529 99.9452 383.156C100.212 382.783 100.591 382.489 101.081 382.276C101.572 382.052 102.132 381.94 102.761 381.94C103.732 381.94 104.516 382.185 105.113 382.676C105.711 383.167 106.031 383.839 106.073 384.692H104.617C104.585 384.233 104.399 383.865 104.057 383.588C103.727 383.311 103.279 383.172 102.713 383.172C102.191 383.172 101.775 383.284 101.465 383.508C101.156 383.732 101.001 384.025 101.001 384.388C101.001 384.676 101.092 384.916 101.273 385.108C101.465 385.289 101.7 385.439 101.977 385.556C102.265 385.663 102.66 385.785 103.161 385.924C103.791 386.095 104.303 386.265 104.697 386.436C105.092 386.596 105.428 386.841 105.705 387.172C105.993 387.503 106.143 387.935 106.153 388.468C106.153 388.948 106.02 389.38 105.753 389.764C105.487 390.148 105.108 390.452 104.617 390.676C104.137 390.889 103.583 390.996 102.953 390.996ZM113.105 390.852L109.665 386.98V390.852H108.209V379.012H109.665V385.972L113.041 382.084H115.073L110.945 386.452L115.089 390.852H113.105ZM117.195 380.66C116.918 380.66 116.683 380.564 116.491 380.372C116.299 380.18 116.203 379.945 116.203 379.668C116.203 379.391 116.299 379.156 116.491 378.964C116.683 378.772 116.918 378.676 117.195 378.676C117.462 378.676 117.686 378.772 117.867 378.964C118.059 379.156 118.155 379.391 118.155 379.668C118.155 379.945 118.059 380.18 117.867 380.372C117.686 380.564 117.462 380.66 117.195 380.66ZM117.899 382.084V390.852H116.443V382.084H117.899ZM121.836 379.012V390.852H120.38V379.012H121.836ZM125.774 379.012V390.852H124.318V379.012H125.774ZM134.297 383.284V388.452C134.297 388.879 134.388 389.183 134.569 389.364C134.75 389.535 135.065 389.62 135.513 389.62H136.585V390.852H135.273C134.462 390.852 133.854 390.665 133.449 390.292C133.044 389.919 132.841 389.305 132.841 388.452V383.284H131.705V382.084H132.841V379.876H134.297V382.084H136.585V383.284H134.297ZM142.173 390.996C141.352 390.996 140.605 390.809 139.933 390.436C139.272 390.063 138.749 389.535 138.365 388.852C137.992 388.159 137.805 387.359 137.805 386.452C137.805 385.556 137.997 384.767 138.381 384.084C138.776 383.391 139.309 382.863 139.981 382.5C140.653 382.127 141.405 381.94 142.237 381.94C143.069 381.94 143.821 382.127 144.493 382.5C145.165 382.863 145.693 383.385 146.077 384.068C146.472 384.751 146.669 385.545 146.669 386.452C146.669 387.359 146.467 388.159 146.061 388.852C145.667 389.535 145.128 390.063 144.445 390.436C143.763 390.809 143.005 390.996 142.173 390.996ZM142.173 389.716C142.696 389.716 143.187 389.593 143.645 389.348C144.104 389.103 144.472 388.735 144.749 388.244C145.037 387.753 145.181 387.156 145.181 386.452C145.181 385.748 145.043 385.151 144.765 384.66C144.488 384.169 144.125 383.807 143.677 383.572C143.229 383.327 142.744 383.204 142.221 383.204C141.688 383.204 141.197 383.327 140.749 383.572C140.312 383.807 139.96 384.169 139.693 384.66C139.427 385.151 139.293 385.748 139.293 386.452C139.293 387.167 139.421 387.769 139.677 388.26C139.944 388.751 140.296 389.119 140.733 389.364C141.171 389.599 141.651 389.716 142.173 389.716ZM156.465 381.94C157.223 381.94 157.884 382.105 158.449 382.436C159.025 382.767 159.452 383.183 159.729 383.684V382.084H161.201V391.044C161.201 391.844 161.031 392.553 160.689 393.172C160.348 393.801 159.857 394.292 159.217 394.644C158.588 394.996 157.852 395.172 157.009 395.172C155.857 395.172 154.897 394.9 154.129 394.356C153.361 393.812 152.908 393.071 152.769 392.132H154.209C154.369 392.665 154.7 393.092 155.201 393.412C155.703 393.743 156.305 393.908 157.009 393.908C157.809 393.908 158.46 393.657 158.961 393.156C159.473 392.655 159.729 391.951 159.729 391.044V389.204C159.441 389.716 159.015 390.143 158.449 390.484C157.884 390.825 157.223 390.996 156.465 390.996C155.687 390.996 154.977 390.804 154.337 390.42C153.708 390.036 153.212 389.497 152.849 388.804C152.487 388.111 152.305 387.321 152.305 386.436C152.305 385.54 152.487 384.756 152.849 384.084C153.212 383.401 153.708 382.873 154.337 382.5C154.977 382.127 155.687 381.94 156.465 381.94ZM159.729 386.452C159.729 385.791 159.596 385.215 159.329 384.724C159.063 384.233 158.7 383.86 158.241 383.604C157.793 383.337 157.297 383.204 156.753 383.204C156.209 383.204 155.713 383.332 155.265 383.588C154.817 383.844 154.46 384.217 154.193 384.708C153.927 385.199 153.793 385.775 153.793 386.436C153.793 387.108 153.927 387.695 154.193 388.196C154.46 388.687 154.817 389.065 155.265 389.332C155.713 389.588 156.209 389.716 156.753 389.716C157.297 389.716 157.793 389.588 158.241 389.332C158.7 389.065 159.063 388.687 159.329 388.196C159.596 387.695 159.729 387.113 159.729 386.452ZM171.662 386.132C171.662 386.409 171.646 386.703 171.614 387.012H164.606C164.659 387.876 164.952 388.553 165.486 389.044C166.03 389.524 166.686 389.764 167.454 389.764C168.083 389.764 168.606 389.62 169.022 389.332C169.448 389.033 169.747 388.639 169.918 388.148H171.486C171.251 388.991 170.782 389.679 170.078 390.212C169.374 390.735 168.499 390.996 167.454 390.996C166.622 390.996 165.875 390.809 165.214 390.436C164.563 390.063 164.051 389.535 163.678 388.852C163.304 388.159 163.118 387.359 163.118 386.452C163.118 385.545 163.299 384.751 163.662 384.068C164.024 383.385 164.531 382.863 165.182 382.5C165.843 382.127 166.6 381.94 167.454 381.94C168.286 381.94 169.022 382.121 169.662 382.484C170.302 382.847 170.792 383.348 171.134 383.988C171.486 384.617 171.662 385.332 171.662 386.132ZM170.158 385.828C170.158 385.273 170.035 384.799 169.79 384.404C169.544 383.999 169.208 383.695 168.782 383.492C168.366 383.279 167.902 383.172 167.39 383.172C166.654 383.172 166.024 383.407 165.502 383.876C164.99 384.345 164.696 384.996 164.622 385.828H170.158ZM175.36 383.284V388.452C175.36 388.879 175.45 389.183 175.632 389.364C175.813 389.535 176.128 389.62 176.576 389.62H177.648V390.852H176.336C175.525 390.852 174.917 390.665 174.512 390.292C174.106 389.919 173.904 389.305 173.904 388.452V383.284H172.768V382.084H173.904V379.876H175.36V382.084H177.648V383.284H175.36ZM183.133 386.436C183.133 385.54 183.315 384.756 183.677 384.084C184.04 383.401 184.536 382.873 185.165 382.5C185.805 382.127 186.515 381.94 187.293 381.94C188.061 381.94 188.728 382.105 189.293 382.436C189.859 382.767 190.28 383.183 190.557 383.684V382.084H192.029V390.852H190.557V389.22C190.269 389.732 189.837 390.159 189.261 390.5C188.696 390.831 188.035 390.996 187.277 390.996C186.499 390.996 185.795 390.804 185.165 390.42C184.536 390.036 184.04 389.497 183.677 388.804C183.315 388.111 183.133 387.321 183.133 386.436ZM190.557 386.452C190.557 385.791 190.424 385.215 190.157 384.724C189.891 384.233 189.528 383.86 189.069 383.604C188.621 383.337 188.125 383.204 187.581 383.204C187.037 383.204 186.541 383.332 186.093 383.588C185.645 383.844 185.288 384.217 185.021 384.708C184.755 385.199 184.621 385.775 184.621 386.436C184.621 387.108 184.755 387.695 185.021 388.196C185.288 388.687 185.645 389.065 186.093 389.332C186.541 389.588 187.037 389.716 187.581 389.716C188.125 389.716 188.621 389.588 189.069 389.332C189.528 389.065 189.891 388.687 190.157 388.196C190.424 387.695 190.557 387.113 190.557 386.452ZM200.211 383.716C200.51 383.193 200.947 382.767 201.523 382.436C202.099 382.105 202.755 381.94 203.491 381.94C204.281 381.94 204.99 382.127 205.619 382.5C206.249 382.873 206.745 383.401 207.107 384.084C207.47 384.756 207.651 385.54 207.651 386.436C207.651 387.321 207.47 388.111 207.107 388.804C206.745 389.497 206.243 390.036 205.603 390.42C204.974 390.804 204.27 390.996 203.491 390.996C202.734 390.996 202.067 390.831 201.491 390.5C200.926 390.169 200.499 389.748 200.211 389.236V390.852H198.755V379.012H200.211V383.716ZM206.163 386.436C206.163 385.775 206.03 385.199 205.763 384.708C205.497 384.217 205.134 383.844 204.675 383.588C204.227 383.332 203.731 383.204 203.187 383.204C202.654 383.204 202.158 383.337 201.699 383.604C201.251 383.86 200.889 384.239 200.611 384.74C200.345 385.231 200.211 385.801 200.211 386.452C200.211 387.113 200.345 387.695 200.611 388.196C200.889 388.687 201.251 389.065 201.699 389.332C202.158 389.588 202.654 389.716 203.187 389.716C203.731 389.716 204.227 389.588 204.675 389.332C205.134 389.065 205.497 388.687 205.763 388.196C206.03 387.695 206.163 387.108 206.163 386.436ZM217.568 386.132C217.568 386.409 217.552 386.703 217.52 387.012H210.512C210.565 387.876 210.859 388.553 211.392 389.044C211.936 389.524 212.592 389.764 213.36 389.764C213.989 389.764 214.512 389.62 214.928 389.332C215.355 389.033 215.653 388.639 215.824 388.148H217.392C217.157 388.991 216.688 389.679 215.984 390.212C215.28 390.735 214.405 390.996 213.36 390.996C212.528 390.996 211.781 390.809 211.12 390.436C210.469 390.063 209.957 389.535 209.584 388.852C209.211 388.159 209.024 387.359 209.024 386.452C209.024 385.545 209.205 384.751 209.568 384.068C209.931 383.385 210.437 382.863 211.088 382.5C211.749 382.127 212.507 381.94 213.36 381.94C214.192 381.94 214.928 382.121 215.568 382.484C216.208 382.847 216.699 383.348 217.04 383.988C217.392 384.617 217.568 385.332 217.568 386.132ZM216.064 385.828C216.064 385.273 215.941 384.799 215.696 384.404C215.451 383.999 215.115 383.695 214.688 383.492C214.272 383.279 213.808 383.172 213.296 383.172C212.56 383.172 211.931 383.407 211.408 383.876C210.896 384.345 210.603 384.996 210.528 385.828H216.064ZM221.266 383.284V388.452C221.266 388.879 221.356 389.183 221.538 389.364C221.719 389.535 222.034 389.62 222.482 389.62H223.554V390.852H222.242C221.431 390.852 220.823 390.665 220.418 390.292C220.012 389.919 219.81 389.305 219.81 388.452V383.284H218.674V382.084H219.81V379.876H221.266V382.084H223.554V383.284H221.266ZM227.094 383.284V388.452C227.094 388.879 227.185 389.183 227.366 389.364C227.547 389.535 227.862 389.62 228.31 389.62H229.382V390.852H228.07C227.259 390.852 226.651 390.665 226.246 390.292C225.841 389.919 225.638 389.305 225.638 388.452V383.284H224.502V382.084H225.638V379.876H227.094V382.084H229.382V383.284H227.094ZM239.146 386.132C239.146 386.409 239.13 386.703 239.098 387.012H232.09C232.143 387.876 232.437 388.553 232.97 389.044C233.514 389.524 234.17 389.764 234.938 389.764C235.567 389.764 236.09 389.62 236.506 389.332C236.933 389.033 237.231 388.639 237.402 388.148H238.97C238.735 388.991 238.266 389.679 237.562 390.212C236.858 390.735 235.983 390.996 234.938 390.996C234.106 390.996 233.359 390.809 232.698 390.436C232.047 390.063 231.535 389.535 231.162 388.852C230.789 388.159 230.602 387.359 230.602 386.452C230.602 385.545 230.783 384.751 231.146 384.068C231.509 383.385 232.015 382.863 232.666 382.5C233.327 382.127 234.085 381.94 234.938 381.94C235.77 381.94 236.506 382.121 237.146 382.484C237.786 382.847 238.277 383.348 238.618 383.988C238.97 384.617 239.146 385.332 239.146 386.132ZM237.642 385.828C237.642 385.273 237.519 384.799 237.274 384.404C237.029 383.999 236.693 383.695 236.266 383.492C235.85 383.279 235.386 383.172 234.874 383.172C234.138 383.172 233.509 383.407 232.986 383.876C232.474 384.345 232.181 384.996 232.106 385.828H237.642ZM242.524 383.508C242.78 383.007 243.143 382.617 243.612 382.34C244.092 382.063 244.673 381.924 245.356 381.924V383.428H244.972C243.34 383.428 242.524 384.313 242.524 386.084V390.852H241.068V382.084H242.524V383.508ZM252.086 380.66C251.809 380.66 251.574 380.564 251.382 380.372C251.201 380.18 251.11 379.945 251.11 379.668C251.11 379.391 251.201 379.156 251.382 378.964C251.574 378.772 251.809 378.676 252.086 378.676C252.364 378.676 252.593 378.772 252.774 378.964C252.966 379.156 253.062 379.391 253.062 379.668C253.062 379.945 252.966 380.18 252.774 380.372C252.593 380.564 252.364 380.66 252.086 380.66ZM252.806 392.756C252.806 393.535 252.609 394.105 252.214 394.468C251.82 394.831 251.244 395.012 250.486 395.012H249.638V393.78H250.246C250.652 393.78 250.934 393.7 251.094 393.54C251.265 393.38 251.35 393.108 251.35 392.724V382.084H252.806V392.756ZM259.095 390.996C258.274 390.996 257.527 390.809 256.855 390.436C256.194 390.063 255.671 389.535 255.287 388.852C254.914 388.159 254.727 387.359 254.727 386.452C254.727 385.556 254.919 384.767 255.303 384.084C255.698 383.391 256.231 382.863 256.903 382.5C257.575 382.127 258.327 381.94 259.159 381.94C259.991 381.94 260.743 382.127 261.415 382.5C262.087 382.863 262.615 383.385 262.999 384.068C263.394 384.751 263.591 385.545 263.591 386.452C263.591 387.359 263.388 388.159 262.983 388.852C262.588 389.535 262.05 390.063 261.367 390.436C260.684 390.809 259.927 390.996 259.095 390.996ZM259.095 389.716C259.618 389.716 260.108 389.593 260.567 389.348C261.026 389.103 261.394 388.735 261.671 388.244C261.959 387.753 262.103 387.156 262.103 386.452C262.103 385.748 261.964 385.151 261.687 384.66C261.41 384.169 261.047 383.807 260.599 383.572C260.151 383.327 259.666 383.204 259.143 383.204C258.61 383.204 258.119 383.327 257.671 383.572C257.234 383.807 256.882 384.169 256.615 384.66C256.348 385.151 256.215 385.748 256.215 386.452C256.215 387.167 256.343 387.769 256.599 388.26C256.866 388.751 257.218 389.119 257.655 389.364C258.092 389.599 258.572 389.716 259.095 389.716ZM266.961 383.716C267.26 383.193 267.697 382.767 268.273 382.436C268.849 382.105 269.505 381.94 270.241 381.94C271.031 381.94 271.74 382.127 272.369 382.5C272.999 382.873 273.495 383.401 273.857 384.084C274.22 384.756 274.401 385.54 274.401 386.436C274.401 387.321 274.22 388.111 273.857 388.804C273.495 389.497 272.993 390.036 272.353 390.42C271.724 390.804 271.02 390.996 270.241 390.996C269.484 390.996 268.817 390.831 268.241 390.5C267.676 390.169 267.249 389.748 266.961 389.236V390.852H265.505V379.012H266.961V383.716ZM272.913 386.436C272.913 385.775 272.78 385.199 272.513 384.708C272.247 384.217 271.884 383.844 271.425 383.588C270.977 383.332 270.481 383.204 269.937 383.204C269.404 383.204 268.908 383.337 268.449 383.604C268.001 383.86 267.639 384.239 267.361 384.74C267.095 385.231 266.961 385.801 266.961 386.452C266.961 387.113 267.095 387.695 267.361 388.196C267.639 388.687 268.001 389.065 268.449 389.332C268.908 389.588 269.404 389.716 269.937 389.716C270.481 389.716 270.977 389.588 271.425 389.332C271.884 389.065 272.247 388.687 272.513 388.196C272.78 387.695 272.913 387.108 272.913 386.436ZM276.782 390.948C276.505 390.948 276.27 390.852 276.078 390.66C275.886 390.468 275.79 390.233 275.79 389.956C275.79 389.679 275.886 389.444 276.078 389.252C276.27 389.06 276.505 388.964 276.782 388.964C277.049 388.964 277.273 389.06 277.454 389.252C277.646 389.444 277.742 389.679 277.742 389.956C277.742 390.233 277.646 390.468 277.454 390.66C277.273 390.852 277.049 390.948 276.782 390.948Z" fill="black"/>
<defs>
<clipPath id="clip0_203_1270">
<rect width="296" height="193.852" fill="white"/>
</clipPath>
</defs>
</svg>
