<svg width="288" height="394" viewBox="0 0 288 394" fill="none" xmlns="http://www.w3.org/2000/svg">
<g clip-path="url(#clip0_203_1106)">
<path d="M243.806 205.785H190.229V205.091H190.229C204.255 205.091 217.706 199.519 227.623 189.602C237.541 179.684 243.113 166.233 243.113 152.207V114.817H243.806V205.785Z" fill="#D9D9D9"/>
<path d="M97.6189 70.6408C96.1946 71.1834 94.7402 71.6433 93.2629 72.0183C91.3116 72.4939 90.2098 72.7144 88.3264 71.9834C88.2603 71.9577 88.1971 71.9323 88.1376 71.9074C84.5676 70.3895 81.516 67.8666 79.354 64.6457C77.192 61.4248 76.013 57.6449 75.9605 53.766C75.9511 53.6329 75.9511 53.4931 75.9511 53.3566C75.9492 52.6992 75.9807 52.0421 76.0452 51.3879C76.1278 50.4967 76.2703 49.6122 76.4719 48.7402L76.4531 48.7368C74.9282 47.1775 74.3415 45.0416 74.536 42.8955C74.6693 41.4405 75.1311 40.0348 75.8865 38.7842C76.642 37.5336 77.6714 36.4708 78.8973 35.6758C80.8185 34.4679 82.9847 33.7033 85.2384 33.4376C85.8436 33.3678 86.4522 33.3325 87.0614 33.3318H92.7844C93.9664 33.0551 95.1671 32.8658 96.3769 32.7654H96.3863C107.904 31.8101 116.988 39.446 116.141 48.7368C116.134 48.747 116.125 48.7572 116.119 48.7675C115.874 49.1667 115.658 49.5454 115.466 49.9071C115.281 50.2449 115.124 50.569 114.989 50.8761C113.938 53.2508 118.933 90.0945 117.142 90.6541C116.122 90.9714 112.012 63.5549 112.749 68.7684C113.678 75.3091 102.925 68.6793 97.6189 70.6408Z" fill="#2F2E41"/>
<path d="M114.97 137.244L130.937 171.258L69.5176 165.038L82.3385 132.384L114.97 137.244Z" fill="#FFB6B6"/>
<path d="M147.022 205.442C136.341 208.997 125.086 210.505 113.846 209.885L108.959 201.959C108.959 201.959 108.754 204.911 108.449 209.424C103.099 208.804 97.818 207.685 92.6763 206.08C82.9256 203.031 73.7854 198.307 64.5202 193.95C62.6436 182.763 61.9395 165.513 72.3146 155.471L128.158 165.704C128.158 165.704 137.118 172.405 134.721 174.806C132.324 177.203 131.953 176.831 133.528 178.406C135.103 179.981 138.506 182.087 138.541 183.464C138.554 184.001 142.374 193.752 147.022 205.442Z" fill="#2F2E41"/>
<path d="M105.219 71.5146L91.7269 72.4559L83.0067 80.8824L79.9527 81.4275C77.2076 81.9169 74.7374 83.3967 73.0108 85.5863C71.2841 87.7758 70.4209 90.5228 70.5849 93.3065C71.2131 103.95 72.6196 119.852 75.5594 125.012C80.1178 133.012 83.8829 130.502 80.1178 133.012C76.3527 135.522 73.8249 133.55 75.5594 137.516C77.2939 141.483 73.2151 146.572 73.2151 146.572L71.5913 148.195L73.3135 148.901L128.188 156.041C128.188 156.041 123.443 134.708 126.411 129.467C129.378 124.226 136.573 108.385 130.152 102.187L123.873 80.0924L113.074 76.9073L105.219 71.5146Z" fill="#491B6D"/>
<path d="M186.89 159.074C185.987 159.046 185.101 158.821 184.294 158.417C183.486 158.012 182.776 157.437 182.213 156.73C181.649 156.024 181.246 155.204 181.03 154.327C180.815 153.45 180.793 152.536 180.965 151.649L155.225 134.217L158.296 125.911L188.717 146.84C190.188 147.241 191.461 148.168 192.294 149.445C193.127 150.722 193.463 152.261 193.238 153.769C193.013 155.277 192.242 156.65 191.072 157.628C189.902 158.605 188.414 159.12 186.89 159.074V159.074Z" fill="#FFB6B6"/>
<path d="M114.186 79.0489L110.445 80.53L130.398 119.499L171.704 147.655L177.658 137.592L146.216 110.433L133.628 86.2909C131.856 82.8934 128.888 80.2728 125.298 78.9353C121.707 77.5978 117.748 77.6383 114.186 79.0489Z" fill="#491B6D"/>
<path d="M97.7707 68.0874C105.253 68.0874 111.318 62.0219 111.318 54.5398C111.318 47.0577 105.253 40.9922 97.7707 40.9922C90.2886 40.9922 84.2231 47.0577 84.2231 54.5398C84.2231 62.0219 90.2886 68.0874 97.7707 68.0874Z" fill="#FFB6B6"/>
<path d="M109.552 48.8109C109.326 48.9301 109.103 49.0399 108.877 49.1497C108.642 49.2627 108.406 49.3757 108.168 49.4823C103.634 51.5375 99.9412 51.7665 97.701 48.8109C97.6397 47.2559 97.2896 45.7259 96.6687 44.299C96.7784 45.8936 96.3582 47.4798 95.4733 48.8109H90.9614C86.3146 51.8952 83.93 54.7284 87.1554 64.8535C87.3657 65.5187 88.8058 89.1511 89.2169 90.9678C82.1823 88.2695 76.1142 59.62 75.9605 52.0709C75.951 51.9485 75.951 51.8199 75.951 51.6944C75.9492 51.0896 75.9806 50.4852 76.0452 49.884C76.128 49.0631 76.2706 48.2493 76.4719 47.4492L76.4531 47.446C75.7373 46.7618 75.1913 45.9198 74.8585 44.9872C74.5257 44.0547 74.4152 43.0572 74.536 42.0744C75.7161 40.5293 77.1764 39.2201 78.8408 38.2152C80.3542 37.4823 81.9317 36.89 83.5535 36.4456C83.5943 36.4362 83.6288 36.4268 83.6696 36.4173C84.1653 36.2824 84.6736 36.1601 85.1819 36.0534C86.2294 35.8337 87.2884 35.6734 88.354 35.5733C88.4325 35.5702 88.5077 35.5639 88.5768 35.5639C89.003 35.5642 89.4213 35.6791 89.7879 35.8965C89.791 35.8965 89.791 35.8996 89.7973 35.8996C90.1495 36.1101 90.4417 36.4077 90.6455 36.7638C90.8494 37.1199 90.9582 37.5225 90.9614 37.9328H95.9878C96.1729 37.9328 96.3581 37.9391 96.5432 37.9485C103.543 38.2277 109.169 41.221 109.53 48.1018C109.545 48.3403 109.552 48.5724 109.552 48.8109Z" fill="#2F2E41"/>
<path d="M79.8344 49.3555C84.7637 49.3555 88.7596 45.3595 88.7596 40.4303C88.7596 35.501 84.7637 31.505 79.8344 31.505C74.9051 31.505 70.9092 35.501 70.9092 40.4303C70.9092 45.3595 74.9051 49.3555 79.8344 49.3555Z" fill="#2F2E41"/>
<path d="M92.0877 36.3021C91.0738 41.1259 86.0711 44.011 81.2852 42.8308C78.9869 42.2641 77.0079 40.8076 75.7835 38.7817C74.5592 36.7558 74.1897 34.3266 74.7564 32.0283C75.9366 27.2424 81.7449 28.6221 85.559 25.4995C90.9545 21.0822 93.4552 29.7967 92.0877 36.3021Z" fill="#2F2E41"/>
<path d="M72.2571 170.579C79.8639 139.559 94.9361 112.896 119.898 92.0067C120.864 90.4175 122.421 89.2763 124.227 88.8337C126.033 88.391 127.942 88.6828 129.533 89.6453L188.873 125.624C190.462 126.59 191.603 128.147 192.046 129.954C192.489 131.76 192.197 133.668 191.234 135.26C181.707 167.09 167.437 194.71 143.594 213.832C142.628 215.422 141.071 216.563 139.264 217.006C137.458 217.448 135.55 217.156 133.958 216.194L74.6186 180.215C73.0294 179.249 71.8883 177.692 71.4455 175.885C71.0028 174.079 71.2947 172.171 72.2571 170.579Z" fill="#D9D9D9"/>
<path opacity="0.2" d="M82.8044 181.034C81.2152 180.068 80.0741 178.511 79.6314 176.704C79.1887 174.898 79.4806 172.99 80.443 171.399C88.0498 140.378 103.122 113.715 128.083 92.8256C128.723 91.7854 129.626 90.9325 130.701 90.3533L129.533 89.6452C127.942 88.6828 126.034 88.3909 124.227 88.8336C122.421 89.2763 120.864 90.4173 119.898 92.0065C94.9364 112.896 79.8642 139.559 72.2574 170.579C71.295 172.171 71.0031 174.079 71.4458 175.885C71.8885 177.692 73.0296 179.249 74.6188 180.215L133.959 216.194C135.015 216.829 136.22 217.174 137.453 217.194C138.685 217.213 139.901 216.907 140.977 216.305L82.8044 181.034Z" fill="black"/>
<path d="M152.395 163.703L112.563 139.703C111.93 139.32 111.475 138.702 111.298 137.984C111.12 137.267 111.235 136.508 111.616 135.874C111.998 135.241 112.615 134.785 113.333 134.607C114.05 134.428 114.809 134.542 115.443 134.923L155.275 158.923C155.906 159.306 156.36 159.924 156.536 160.641C156.713 161.358 156.598 162.116 156.217 162.748C155.836 163.381 155.22 163.836 154.503 164.015C153.787 164.194 153.029 164.082 152.395 163.703L152.395 163.703Z" fill="white"/>
<path d="M129.223 131.876L120.46 126.596C119.825 126.216 119.367 125.6 119.186 124.882C119.006 124.164 119.118 123.404 119.498 122.769C119.878 122.134 120.495 121.676 121.212 121.496C121.93 121.315 122.69 121.427 123.325 121.807L123.34 121.816L132.103 127.096C132.734 127.479 133.188 128.097 133.365 128.814C133.542 129.531 133.427 130.289 133.046 130.922C132.665 131.555 132.048 132.01 131.332 132.189C130.615 132.368 129.857 132.255 129.223 131.876Z" fill="white"/>
<path d="M146.064 174.209L106.232 150.209C105.599 149.828 105.143 149.21 104.964 148.493C104.786 147.775 104.899 147.016 105.28 146.382C105.661 145.748 106.278 145.291 106.996 145.112C107.713 144.933 108.472 145.046 109.107 145.426L109.112 145.429L148.944 169.429C149.575 169.813 150.029 170.43 150.206 171.147C150.382 171.864 150.267 172.622 149.886 173.255C149.505 173.887 148.889 174.343 148.172 174.522C147.456 174.701 146.698 174.588 146.064 174.209L146.064 174.209Z" fill="white"/>
<path d="M157.453 118.45C163.878 118.45 169.087 113.241 169.087 106.816C169.087 100.39 163.878 95.1818 157.453 95.1818C151.028 95.1818 145.819 100.39 145.819 106.816C145.819 113.241 151.028 118.45 157.453 118.45Z" fill="#3F3D56"/>
<path d="M137.399 231.478C151.132 231.478 162.265 220.345 162.265 206.612C162.265 192.879 151.132 181.746 137.399 181.746C123.666 181.746 112.533 192.879 112.533 206.612C112.533 220.345 123.666 231.478 137.399 231.478Z" fill="white"/>
<path d="M137.399 231.825C132.413 231.825 127.538 230.346 123.392 227.576C119.245 224.805 116.014 220.868 114.106 216.261C112.197 211.654 111.698 206.584 112.671 201.693C113.644 196.803 116.045 192.31 119.571 188.784C123.097 185.258 127.589 182.857 132.48 181.884C137.371 180.911 142.441 181.41 147.048 183.318C151.655 185.227 155.592 188.458 158.363 192.605C161.133 196.751 162.612 201.625 162.612 206.612C162.604 213.297 159.946 219.705 155.219 224.432C150.492 229.159 144.084 231.817 137.399 231.825ZM137.399 182.093C132.55 182.093 127.809 183.531 123.777 186.225C119.745 188.919 116.602 192.749 114.746 197.229C112.891 201.709 112.405 206.639 113.351 211.396C114.297 216.152 116.633 220.521 120.062 223.95C123.491 227.379 127.86 229.714 132.616 230.66C137.372 231.606 142.302 231.121 146.782 229.265C151.263 227.409 155.092 224.266 157.786 220.234C160.48 216.202 161.918 211.461 161.918 206.612C161.911 200.111 159.325 193.879 154.729 189.283C150.132 184.686 143.9 182.1 137.399 182.093Z" fill="#3F3D56"/>
<path d="M134.007 219.554C133.578 219.554 133.154 219.454 132.77 219.262C132.386 219.069 132.052 218.791 131.794 218.447L125.011 209.402C124.792 209.111 124.633 208.78 124.543 208.428C124.453 208.076 124.432 207.71 124.484 207.35C124.535 206.991 124.657 206.644 124.842 206.332C125.027 206.019 125.272 205.746 125.563 205.528C125.853 205.31 126.184 205.151 126.536 205.061C126.888 204.971 127.255 204.951 127.614 205.002C127.974 205.054 128.32 205.176 128.633 205.361C128.945 205.547 129.218 205.792 129.436 206.083L133.874 212L145.273 194.902C145.475 194.6 145.734 194.34 146.036 194.138C146.338 193.936 146.676 193.795 147.032 193.724C147.389 193.653 147.755 193.652 148.112 193.723C148.468 193.793 148.807 193.933 149.109 194.135C149.411 194.336 149.671 194.595 149.873 194.897C150.075 195.199 150.216 195.537 150.287 195.894C150.358 196.25 150.359 196.617 150.288 196.973C150.218 197.329 150.078 197.668 149.876 197.97L136.309 218.322C136.063 218.69 135.733 218.994 135.346 219.208C134.959 219.422 134.526 219.54 134.084 219.553C134.058 219.553 134.033 219.554 134.007 219.554Z" fill="#491B6D"/>
<path d="M217.704 80.6027C218.692 80.5183 219.446 79.8925 219.387 79.2051C219.328 78.5178 218.479 78.029 217.491 78.1135C216.503 78.198 215.75 78.8237 215.809 79.5111C215.867 80.1985 216.716 80.6872 217.704 80.6027Z" fill="white"/>
<path d="M228.822 76.8313C229.81 76.7468 230.563 76.1211 230.504 75.4337C230.446 74.7463 229.597 74.2576 228.609 74.3421C227.621 74.4266 226.867 75.0523 226.926 75.7397C226.985 76.4271 227.834 76.9158 228.822 76.8313Z" fill="#3F3D56"/>
<path d="M212.434 72.1207C213.422 72.0362 214.176 71.4105 214.117 70.7231C214.058 70.0357 213.209 69.547 212.221 69.6315C211.233 69.716 210.48 70.3417 210.539 71.0291C210.597 71.7164 211.446 72.2052 212.434 72.1207Z" fill="#FF6584"/>
<path d="M207.771 69.3876C208.196 69.2915 208.429 68.718 208.291 68.1066C208.153 67.4953 207.696 67.0776 207.271 67.1737C206.845 67.2698 206.612 67.8433 206.751 68.4546C206.889 69.066 207.345 69.4837 207.771 69.3876Z" fill="#D9D9D9"/>
<path d="M204.45 62.7523C204.876 62.6562 205.109 62.0827 204.97 61.4714C204.832 60.86 204.376 60.4423 203.95 60.5384C203.525 60.6345 203.292 61.208 203.43 61.8194C203.568 62.4307 204.025 62.8484 204.45 62.7523Z" fill="#3F3D56"/>
<path d="M220.38 72.0704C220.806 71.9744 221.038 71.4009 220.9 70.7895C220.762 70.1782 220.305 69.7605 219.88 69.8566C219.455 69.9527 219.222 70.5261 219.36 71.1375C219.498 71.7488 219.955 72.1665 220.38 72.0704Z" fill="#D9D9D9"/>
<path d="M215.525 76.1016C215.95 76.0055 216.183 75.432 216.045 74.8207C215.906 74.2093 215.45 73.7916 215.024 73.8877C214.599 73.9838 214.366 74.5573 214.505 75.1686C214.643 75.78 215.099 76.1977 215.525 76.1016Z" fill="#FF6584"/>
<path d="M224.365 79.385C224.79 79.2889 225.023 78.7154 224.885 78.104C224.747 77.4927 224.29 77.075 223.865 77.1711C223.439 77.2672 223.207 77.8407 223.345 78.452C223.483 79.0634 223.94 79.4811 224.365 79.385Z" fill="#3F3D56"/>
<path d="M171.803 29.2046C171.973 28.5359 171.331 27.7963 170.369 27.5527C169.408 27.309 168.491 27.6537 168.322 28.3224C168.153 28.9912 168.794 29.7308 169.756 29.9744C170.717 30.218 171.634 29.8734 171.803 29.2046Z" fill="white"/>
<path d="M160.064 29.129C160.233 28.4602 159.591 27.7206 158.63 27.477C157.669 27.2334 156.752 27.578 156.583 28.2467C156.413 28.9155 157.055 29.6551 158.016 29.8988C158.978 30.1424 159.894 29.7977 160.064 29.129Z" fill="#3F3D56"/>
<path d="M174.006 38.9445C174.176 38.2757 173.534 37.5361 172.573 37.2925C171.611 37.0488 170.695 37.3935 170.525 38.0622C170.356 38.731 170.998 39.4706 171.959 39.7142C172.92 39.9578 173.837 39.6132 174.006 38.9445Z" fill="#FF6584"/>
<path d="M176.743 42.6171C176.813 41.9942 176.518 41.45 176.084 41.4016C175.651 41.3532 175.243 41.8189 175.174 42.4418C175.104 43.0647 175.399 43.6089 175.832 43.6573C176.266 43.7057 176.673 43.24 176.743 42.6171Z" fill="#D9D9D9"/>
<path d="M177.708 49.9737C177.778 49.3508 177.483 48.8066 177.05 48.7582C176.616 48.7097 176.209 49.1754 176.139 49.7983C176.069 50.4212 176.364 50.9654 176.798 51.0138C177.231 51.0622 177.639 50.5965 177.708 49.9737Z" fill="#3F3D56"/>
<path d="M165.706 35.9542C165.776 35.3313 165.481 34.7871 165.048 34.7387C164.614 34.6903 164.207 35.156 164.137 35.7789C164.067 36.4018 164.362 36.946 164.796 36.9944C165.229 37.0428 165.637 36.5771 165.706 35.9542Z" fill="#D9D9D9"/>
<path d="M171.614 33.7348C171.684 33.1119 171.389 32.5677 170.956 32.5193C170.522 32.4708 170.115 32.9365 170.045 33.5594C169.975 34.1823 170.27 34.7265 170.704 34.7749C171.137 34.8233 171.545 34.3576 171.614 33.7348Z" fill="#FF6584"/>
<path d="M164.336 27.7385C164.405 27.1156 164.111 26.5714 163.677 26.523C163.244 26.4745 162.836 26.9402 162.767 27.5631C162.697 28.186 162.992 28.7302 163.425 28.7786C163.859 28.827 164.266 28.3613 164.336 27.7385Z" fill="#3F3D56"/>
<path d="M44.8874 90.9678H44.1936V0H97.7707V0.693756H97.7706C83.7451 0.693756 70.294 6.26537 60.3765 16.1829C50.459 26.1004 44.8874 39.5515 44.8874 53.577V90.9678Z" fill="#D9D9D9"/>
<path d="M75.9572 170.908C75.0706 170.545 74.2734 169.993 73.6209 169.292C72.9684 168.59 72.4761 167.755 72.1781 166.844C71.88 165.933 71.7833 164.969 71.8947 164.017C72.0061 163.066 72.3228 162.149 72.8231 161.332L53.7083 134.463L59.8404 127.348L82.3101 159.428C83.623 160.372 84.544 161.765 84.8984 163.343C85.2528 164.921 85.016 166.574 84.2329 167.99C83.4498 169.405 82.1749 170.483 80.6496 171.021C79.1244 171.559 77.4548 171.519 75.9572 170.908H75.9572Z" fill="#FFB6B6"/>
<path d="M76.3963 85.7594C75.4292 85.1904 74.291 84.9847 73.186 85.1793C72.081 85.3738 71.0815 85.9558 70.3669 86.8209L44.5403 122.941L68.4749 156.935L77.8406 146.875L63.2717 123.981L82.6338 105.547C84.2249 102.061 84.468 98.1092 83.316 94.4548C82.164 90.8004 79.6987 87.7025 76.3963 85.7594Z" fill="#491B6D"/>
</g>
<circle cx="124" cy="266.825" r="5" fill="#D9D9D9"/>
<circle cx="144" cy="266.825" r="5" fill="#D9D9D9"/>
<circle cx="164" cy="266.825" r="5" fill="#491B6D"/>
<path d="M95.504 317.185C95.276 316.765 94.946 316.447 94.514 316.231C94.094 316.003 93.596 315.889 93.02 315.889C92.024 315.889 91.226 316.219 90.626 316.879C90.026 317.527 89.726 318.397 89.726 319.489C89.726 320.653 90.038 321.565 90.662 322.225C91.298 322.873 92.168 323.197 93.272 323.197C94.028 323.197 94.664 323.005 95.18 322.621C95.708 322.237 96.092 321.685 96.332 320.965H92.426V318.697H99.122V321.559C98.894 322.327 98.504 323.041 97.952 323.701C97.412 324.361 96.722 324.895 95.882 325.303C95.042 325.711 94.094 325.915 93.038 325.915C91.79 325.915 90.674 325.645 89.69 325.105C88.718 324.553 87.956 323.791 87.404 322.819C86.864 321.847 86.594 320.737 86.594 319.489C86.594 318.241 86.864 317.131 87.404 316.159C87.956 315.175 88.718 314.413 89.69 313.873C90.662 313.321 91.772 313.045 93.02 313.045C94.532 313.045 95.804 313.411 96.836 314.143C97.88 314.875 98.57 315.889 98.906 317.185H95.504ZM110.295 320.641C110.295 320.929 110.277 321.229 110.241 321.541H103.275C103.323 322.165 103.521 322.645 103.869 322.981C104.229 323.305 104.667 323.467 105.183 323.467C105.951 323.467 106.485 323.143 106.785 322.495H110.061C109.893 323.155 109.587 323.749 109.143 324.277C108.711 324.805 108.165 325.219 107.505 325.519C106.845 325.819 106.107 325.969 105.291 325.969C104.307 325.969 103.431 325.759 102.663 325.339C101.895 324.919 101.295 324.319 100.863 323.539C100.431 322.759 100.215 321.847 100.215 320.803C100.215 319.759 100.425 318.847 100.845 318.067C101.277 317.287 101.877 316.687 102.645 316.267C103.413 315.847 104.295 315.637 105.291 315.637C106.263 315.637 107.127 315.841 107.883 316.249C108.639 316.657 109.227 317.239 109.647 317.995C110.079 318.751 110.295 319.633 110.295 320.641ZM107.145 319.831C107.145 319.303 106.965 318.883 106.605 318.571C106.245 318.259 105.795 318.103 105.255 318.103C104.739 318.103 104.301 318.253 103.941 318.553C103.593 318.853 103.377 319.279 103.293 319.831H107.145ZM117.517 323.215V325.825H115.951C114.835 325.825 113.965 325.555 113.341 325.015C112.717 324.463 112.405 323.569 112.405 322.333V318.337H111.181V315.781H112.405V313.333H115.483V315.781H117.499V318.337H115.483V322.369C115.483 322.669 115.555 322.885 115.699 323.017C115.843 323.149 116.083 323.215 116.419 323.215H117.517ZM122.524 319.489C122.524 318.241 122.794 317.131 123.334 316.159C123.874 315.175 124.624 314.413 125.584 313.873C126.556 313.321 127.654 313.045 128.878 313.045C130.378 313.045 131.662 313.441 132.73 314.233C133.798 315.025 134.512 316.105 134.872 317.473H131.488C131.236 316.945 130.876 316.543 130.408 316.267C129.952 315.991 129.43 315.853 128.842 315.853C127.894 315.853 127.126 316.183 126.538 316.843C125.95 317.503 125.656 318.385 125.656 319.489C125.656 320.593 125.95 321.475 126.538 322.135C127.126 322.795 127.894 323.125 128.842 323.125C129.43 323.125 129.952 322.987 130.408 322.711C130.876 322.435 131.236 322.033 131.488 321.505H134.872C134.512 322.873 133.798 323.953 132.73 324.745C131.662 325.525 130.378 325.915 128.878 325.915C127.654 325.915 126.556 325.645 125.584 325.105C124.624 324.553 123.874 323.791 123.334 322.819C122.794 321.847 122.524 320.737 122.524 319.489ZM146.225 320.641C146.225 320.929 146.207 321.229 146.171 321.541H139.205C139.253 322.165 139.451 322.645 139.799 322.981C140.159 323.305 140.597 323.467 141.113 323.467C141.881 323.467 142.415 323.143 142.715 322.495H145.991C145.823 323.155 145.517 323.749 145.073 324.277C144.641 324.805 144.095 325.219 143.435 325.519C142.775 325.819 142.037 325.969 141.221 325.969C140.237 325.969 139.361 325.759 138.593 325.339C137.825 324.919 137.225 324.319 136.793 323.539C136.361 322.759 136.145 321.847 136.145 320.803C136.145 319.759 136.355 318.847 136.775 318.067C137.207 317.287 137.807 316.687 138.575 316.267C139.343 315.847 140.225 315.637 141.221 315.637C142.193 315.637 143.057 315.841 143.813 316.249C144.569 316.657 145.157 317.239 145.577 317.995C146.009 318.751 146.225 319.633 146.225 320.641ZM143.075 319.831C143.075 319.303 142.895 318.883 142.535 318.571C142.175 318.259 141.725 318.103 141.185 318.103C140.669 318.103 140.231 318.253 139.871 318.553C139.523 318.853 139.307 319.279 139.223 319.831H143.075ZM150.926 317.455C151.286 316.903 151.736 316.471 152.276 316.159C152.816 315.835 153.416 315.673 154.076 315.673V318.931H153.23C152.462 318.931 151.886 319.099 151.502 319.435C151.118 319.759 150.926 320.335 150.926 321.163V325.825H147.848V315.781H150.926V317.455ZM161.146 323.215V325.825H159.58C158.464 325.825 157.594 325.555 156.97 325.015C156.346 324.463 156.034 323.569 156.034 322.333V318.337H154.81V315.781H156.034V313.333H159.112V315.781H161.128V318.337H159.112V322.369C159.112 322.669 159.184 322.885 159.328 323.017C159.472 323.149 159.712 323.215 160.048 323.215H161.146ZM164.408 314.737C163.868 314.737 163.424 314.581 163.076 314.269C162.74 313.945 162.572 313.549 162.572 313.081C162.572 312.601 162.74 312.205 163.076 311.893C163.424 311.569 163.868 311.407 164.408 311.407C164.936 311.407 165.368 311.569 165.704 311.893C166.052 312.205 166.226 312.601 166.226 313.081C166.226 313.549 166.052 313.945 165.704 314.269C165.368 314.581 164.936 314.737 164.408 314.737ZM165.938 315.781V325.825H162.86V315.781H165.938ZM173.209 318.337H171.553V325.825H168.475V318.337H167.359V315.781H168.475V315.493C168.475 314.257 168.829 313.321 169.537 312.685C170.245 312.037 171.283 311.713 172.651 311.713C172.879 311.713 173.047 311.719 173.155 311.731V314.341C172.567 314.305 172.153 314.389 171.913 314.593C171.673 314.797 171.553 315.163 171.553 315.691V315.781H173.209V318.337ZM176.203 314.737C175.663 314.737 175.219 314.581 174.871 314.269C174.535 313.945 174.367 313.549 174.367 313.081C174.367 312.601 174.535 312.205 174.871 311.893C175.219 311.569 175.663 311.407 176.203 311.407C176.731 311.407 177.163 311.569 177.499 311.893C177.847 312.205 178.021 312.601 178.021 313.081C178.021 313.549 177.847 313.945 177.499 314.269C177.163 314.581 176.731 314.737 176.203 314.737ZM177.733 315.781V325.825H174.655V315.781H177.733ZM189.432 320.641C189.432 320.929 189.414 321.229 189.378 321.541H182.412C182.46 322.165 182.658 322.645 183.006 322.981C183.366 323.305 183.804 323.467 184.32 323.467C185.088 323.467 185.622 323.143 185.922 322.495H189.198C189.03 323.155 188.724 323.749 188.28 324.277C187.848 324.805 187.302 325.219 186.642 325.519C185.982 325.819 185.244 325.969 184.428 325.969C183.444 325.969 182.568 325.759 181.8 325.339C181.032 324.919 180.432 324.319 180 323.539C179.568 322.759 179.352 321.847 179.352 320.803C179.352 319.759 179.562 318.847 179.982 318.067C180.414 317.287 181.014 316.687 181.782 316.267C182.55 315.847 183.432 315.637 184.428 315.637C185.4 315.637 186.264 315.841 187.02 316.249C187.776 316.657 188.364 317.239 188.784 317.995C189.216 318.751 189.432 319.633 189.432 320.641ZM186.282 319.831C186.282 319.303 186.102 318.883 185.742 318.571C185.382 318.259 184.932 318.103 184.392 318.103C183.876 318.103 183.438 318.253 183.078 318.553C182.73 318.853 182.514 319.279 182.43 319.831H186.282ZM190.443 320.785C190.443 319.753 190.635 318.847 191.019 318.067C191.415 317.287 191.949 316.687 192.621 316.267C193.293 315.847 194.043 315.637 194.871 315.637C195.531 315.637 196.131 315.775 196.671 316.051C197.223 316.327 197.655 316.699 197.967 317.167V312.505H201.045V325.825H197.967V324.385C197.679 324.865 197.265 325.249 196.725 325.537C196.197 325.825 195.579 325.969 194.871 325.969C194.043 325.969 193.293 325.759 192.621 325.339C191.949 324.907 191.415 324.301 191.019 323.521C190.635 322.729 190.443 321.817 190.443 320.785ZM197.967 320.803C197.967 320.035 197.751 319.429 197.319 318.985C196.899 318.541 196.383 318.319 195.771 318.319C195.159 318.319 194.637 318.541 194.205 318.985C193.785 319.417 193.575 320.017 193.575 320.785C193.575 321.553 193.785 322.165 194.205 322.621C194.637 323.065 195.159 323.287 195.771 323.287C196.383 323.287 196.899 323.065 197.319 322.621C197.751 322.177 197.967 321.571 197.967 320.803Z" fill="#491B6D"/>
<path d="M5.49456 368.937C4.75856 368.937 4.09723 368.809 3.51056 368.553C2.93456 368.286 2.48123 367.924 2.15056 367.465C1.8199 366.996 1.64923 366.457 1.63856 365.849H3.19056C3.2439 366.372 3.45723 366.814 3.83056 367.177C4.21456 367.529 4.76923 367.705 5.49456 367.705C6.1879 367.705 6.7319 367.534 7.12656 367.193C7.5319 366.841 7.73456 366.393 7.73456 365.849C7.73456 365.422 7.61723 365.076 7.38256 364.809C7.1479 364.542 6.85456 364.34 6.50256 364.201C6.15056 364.062 5.6759 363.913 5.07856 363.753C4.34256 363.561 3.75056 363.369 3.30256 363.177C2.86523 362.985 2.48656 362.686 2.16656 362.281C1.85723 361.865 1.70256 361.31 1.70256 360.617C1.70256 360.009 1.85723 359.47 2.16656 359.001C2.4759 358.532 2.9079 358.169 3.46256 357.913C4.0279 357.657 4.67323 357.529 5.39856 357.529C6.4439 357.529 7.29723 357.79 7.95856 358.313C8.63056 358.836 9.00923 359.529 9.09456 360.393H7.49456C7.44123 359.966 7.21723 359.593 6.82256 359.273C6.4279 358.942 5.90523 358.777 5.25456 358.777C4.64656 358.777 4.15056 358.937 3.76656 359.257C3.38256 359.566 3.19056 360.004 3.19056 360.569C3.19056 360.974 3.30256 361.305 3.52656 361.561C3.76123 361.817 4.0439 362.014 4.37456 362.153C4.7159 362.281 5.19056 362.43 5.79856 362.601C6.53456 362.804 7.12656 363.006 7.57456 363.209C8.02256 363.401 8.40656 363.705 8.72656 364.121C9.04656 364.526 9.20656 365.081 9.20656 365.785C9.20656 366.329 9.06256 366.841 8.77456 367.321C8.48656 367.801 8.0599 368.19 7.49456 368.489C6.92923 368.788 6.26256 368.937 5.49456 368.937ZM13.1252 361.257V366.425C13.1252 366.852 13.2159 367.156 13.3972 367.337C13.5785 367.508 13.8932 367.593 14.3412 367.593H15.4132V368.825H14.1012C13.2905 368.825 12.6825 368.638 12.2772 368.265C11.8719 367.892 11.6692 367.278 11.6692 366.425V361.257H10.5332V360.057H11.6692V357.849H13.1252V360.057H15.4132V361.257H13.1252ZM16.6333 364.409C16.6333 363.513 16.8146 362.729 17.1773 362.057C17.54 361.374 18.036 360.846 18.6653 360.473C19.3053 360.1 20.0146 359.913 20.7933 359.913C21.5613 359.913 22.228 360.078 22.7933 360.409C23.3586 360.74 23.78 361.156 24.0573 361.657V360.057H25.5293V368.825H24.0573V367.193C23.7693 367.705 23.3373 368.132 22.7613 368.473C22.196 368.804 21.5346 368.969 20.7773 368.969C19.9986 368.969 19.2946 368.777 18.6653 368.393C18.036 368.009 17.54 367.47 17.1773 366.777C16.8146 366.084 16.6333 365.294 16.6333 364.409ZM24.0573 364.425C24.0573 363.764 23.924 363.188 23.6573 362.697C23.3906 362.206 23.028 361.833 22.5693 361.577C22.1213 361.31 21.6253 361.177 21.0813 361.177C20.5373 361.177 20.0413 361.305 19.5933 361.561C19.1453 361.817 18.788 362.19 18.5213 362.681C18.2546 363.172 18.1213 363.748 18.1213 364.409C18.1213 365.081 18.2546 365.668 18.5213 366.169C18.788 366.66 19.1453 367.038 19.5933 367.305C20.0413 367.561 20.5373 367.689 21.0813 367.689C21.6253 367.689 22.1213 367.561 22.5693 367.305C23.028 367.038 23.3906 366.66 23.6573 366.169C23.924 365.668 24.0573 365.086 24.0573 364.425ZM29.4458 361.481C29.7018 360.98 30.0645 360.59 30.5338 360.313C31.0138 360.036 31.5951 359.897 32.2778 359.897V361.401H31.8938C30.2618 361.401 29.4458 362.286 29.4458 364.057V368.825H27.9898V360.057H29.4458V361.481ZM35.7346 361.257V366.425C35.7346 366.852 35.8252 367.156 36.0066 367.337C36.1879 367.508 36.5026 367.593 36.9506 367.593H38.0226V368.825H36.7106C35.8999 368.825 35.2919 368.638 34.8866 368.265C34.4812 367.892 34.2786 367.278 34.2786 366.425V361.257H33.1426V360.057H34.2786V357.849H35.7346V360.057H38.0226V361.257H35.7346ZM45.5083 356.985V368.825H44.0523V356.985H45.5083ZM55.9898 364.105C55.9898 364.382 55.9738 364.676 55.9418 364.985H48.9338C48.9871 365.849 49.2805 366.526 49.8138 367.017C50.3578 367.497 51.0138 367.737 51.7818 367.737C52.4111 367.737 52.9338 367.593 53.3498 367.305C53.7765 367.006 54.0751 366.612 54.2458 366.121H55.8138C55.5791 366.964 55.1098 367.652 54.4058 368.185C53.7018 368.708 52.8271 368.969 51.7818 368.969C50.9498 368.969 50.2031 368.782 49.5418 368.409C48.8911 368.036 48.3791 367.508 48.0058 366.825C47.6325 366.132 47.4458 365.332 47.4458 364.425C47.4458 363.518 47.6271 362.724 47.9898 362.041C48.3525 361.358 48.8591 360.836 49.5098 360.473C50.1711 360.1 50.9285 359.913 51.7818 359.913C52.6138 359.913 53.3498 360.094 53.9898 360.457C54.6298 360.82 55.1205 361.321 55.4618 361.961C55.8138 362.59 55.9898 363.305 55.9898 364.105ZM54.4858 363.801C54.4858 363.246 54.3631 362.772 54.1178 362.377C53.8725 361.972 53.5365 361.668 53.1098 361.465C52.6938 361.252 52.2298 361.145 51.7178 361.145C50.9818 361.145 50.3525 361.38 49.8298 361.849C49.3178 362.318 49.0245 362.969 48.9498 363.801H54.4858ZM57.3677 364.409C57.3677 363.513 57.549 362.729 57.9117 362.057C58.2744 361.374 58.7704 360.846 59.3997 360.473C60.0397 360.1 60.749 359.913 61.5277 359.913C62.2957 359.913 62.9624 360.078 63.5277 360.409C64.093 360.74 64.5144 361.156 64.7917 361.657V360.057H66.2637V368.825H64.7917V367.193C64.5037 367.705 64.0717 368.132 63.4957 368.473C62.9304 368.804 62.269 368.969 61.5117 368.969C60.733 368.969 60.029 368.777 59.3997 368.393C58.7704 368.009 58.2744 367.47 57.9117 366.777C57.549 366.084 57.3677 365.294 57.3677 364.409ZM64.7917 364.425C64.7917 363.764 64.6584 363.188 64.3917 362.697C64.125 362.206 63.7624 361.833 63.3037 361.577C62.8557 361.31 62.3597 361.177 61.8157 361.177C61.2717 361.177 60.7757 361.305 60.3277 361.561C59.8797 361.817 59.5224 362.19 59.2557 362.681C58.989 363.172 58.8557 363.748 58.8557 364.409C58.8557 365.081 58.989 365.668 59.2557 366.169C59.5224 366.66 59.8797 367.038 60.3277 367.305C60.7757 367.561 61.2717 367.689 61.8157 367.689C62.3597 367.689 62.8557 367.561 63.3037 367.305C63.7624 367.038 64.125 366.66 64.3917 366.169C64.6584 365.668 64.7917 365.086 64.7917 364.425ZM70.1802 361.481C70.4362 360.98 70.7989 360.59 71.2682 360.313C71.7482 360.036 72.3295 359.897 73.0122 359.897V361.401H72.6282C70.9962 361.401 70.1802 362.286 70.1802 364.057V368.825H68.7242V360.057H70.1802V361.481ZM78.9649 359.897C80.0316 359.897 80.8956 360.222 81.5569 360.873C82.2183 361.513 82.5489 362.441 82.5489 363.657V368.825H81.1089V363.865C81.1089 362.99 80.8903 362.324 80.4529 361.865C80.0156 361.396 79.4183 361.161 78.6609 361.161C77.8929 361.161 77.2796 361.401 76.8209 361.881C76.3729 362.361 76.1489 363.06 76.1489 363.977V368.825H74.6929V360.057H76.1489V361.305C76.4369 360.857 76.8263 360.51 77.3169 360.265C77.8183 360.02 78.3676 359.897 78.9649 359.897ZM85.6793 358.633C85.402 358.633 85.1673 358.537 84.9753 358.345C84.7833 358.153 84.6873 357.918 84.6873 357.641C84.6873 357.364 84.7833 357.129 84.9753 356.937C85.1673 356.745 85.402 356.649 85.6793 356.649C85.946 356.649 86.17 356.745 86.3513 356.937C86.5433 357.129 86.6393 357.364 86.6393 357.641C86.6393 357.918 86.5433 358.153 86.3513 358.345C86.17 358.537 85.946 358.633 85.6793 358.633ZM86.3833 360.057V368.825H84.9273V360.057H86.3833ZM93.1368 359.897C94.2035 359.897 95.0675 360.222 95.7288 360.873C96.3901 361.513 96.7208 362.441 96.7208 363.657V368.825H95.2808V363.865C95.2808 362.99 95.0621 362.324 94.6248 361.865C94.1875 361.396 93.5901 361.161 92.8328 361.161C92.0648 361.161 91.4515 361.401 90.9928 361.881C90.5448 362.361 90.3208 363.06 90.3208 363.977V368.825H88.8648V360.057H90.3208V361.305C90.6088 360.857 90.9981 360.51 91.4888 360.265C91.9901 360.02 92.5395 359.897 93.1368 359.897ZM102.715 359.913C103.473 359.913 104.134 360.078 104.699 360.409C105.275 360.74 105.702 361.156 105.979 361.657V360.057H107.451V369.017C107.451 369.817 107.281 370.526 106.939 371.145C106.598 371.774 106.107 372.265 105.467 372.617C104.838 372.969 104.102 373.145 103.259 373.145C102.107 373.145 101.147 372.873 100.379 372.329C99.6112 371.785 99.1579 371.044 99.0192 370.105H100.459C100.619 370.638 100.95 371.065 101.451 371.385C101.953 371.716 102.555 371.881 103.259 371.881C104.059 371.881 104.71 371.63 105.211 371.129C105.723 370.628 105.979 369.924 105.979 369.017V367.177C105.691 367.689 105.265 368.116 104.699 368.457C104.134 368.798 103.473 368.969 102.715 368.969C101.937 368.969 101.227 368.777 100.587 368.393C99.9579 368.009 99.4619 367.47 99.0992 366.777C98.7365 366.084 98.5552 365.294 98.5552 364.409C98.5552 363.513 98.7365 362.729 99.0992 362.057C99.4619 361.374 99.9579 360.846 100.587 360.473C101.227 360.1 101.937 359.913 102.715 359.913ZM105.979 364.425C105.979 363.764 105.846 363.188 105.579 362.697C105.313 362.206 104.95 361.833 104.491 361.577C104.043 361.31 103.547 361.177 103.003 361.177C102.459 361.177 101.963 361.305 101.515 361.561C101.067 361.817 100.71 362.19 100.443 362.681C100.177 363.172 100.043 363.748 100.043 364.409C100.043 365.081 100.177 365.668 100.443 366.169C100.71 366.66 101.067 367.038 101.515 367.305C101.963 367.561 102.459 367.689 103.003 367.689C103.547 367.689 104.043 367.561 104.491 367.305C104.95 367.038 105.313 366.66 105.579 366.169C105.846 365.668 105.979 365.086 105.979 364.425ZM113.633 364.409C113.633 363.513 113.815 362.729 114.177 362.057C114.54 361.374 115.036 360.846 115.665 360.473C116.305 360.1 117.015 359.913 117.793 359.913C118.561 359.913 119.228 360.078 119.793 360.409C120.359 360.74 120.78 361.156 121.057 361.657V360.057H122.529V368.825H121.057V367.193C120.769 367.705 120.337 368.132 119.761 368.473C119.196 368.804 118.535 368.969 117.777 368.969C116.999 368.969 116.295 368.777 115.665 368.393C115.036 368.009 114.54 367.47 114.177 366.777C113.815 366.084 113.633 365.294 113.633 364.409ZM121.057 364.425C121.057 363.764 120.924 363.188 120.657 362.697C120.391 362.206 120.028 361.833 119.569 361.577C119.121 361.31 118.625 361.177 118.081 361.177C117.537 361.177 117.041 361.305 116.593 361.561C116.145 361.817 115.788 362.19 115.521 362.681C115.255 363.172 115.121 363.748 115.121 364.409C115.121 365.081 115.255 365.668 115.521 366.169C115.788 366.66 116.145 367.038 116.593 367.305C117.041 367.561 117.537 367.689 118.081 367.689C118.625 367.689 119.121 367.561 119.569 367.305C120.028 367.038 120.391 366.66 120.657 366.169C120.924 365.668 121.057 365.086 121.057 364.425ZM129.262 359.897C130.328 359.897 131.192 360.222 131.854 360.873C132.515 361.513 132.846 362.441 132.846 363.657V368.825H131.406V363.865C131.406 362.99 131.187 362.324 130.75 361.865C130.312 361.396 129.715 361.161 128.958 361.161C128.19 361.161 127.576 361.401 127.118 361.881C126.67 362.361 126.446 363.06 126.446 363.977V368.825H124.99V360.057H126.446V361.305C126.734 360.857 127.123 360.51 127.614 360.265C128.115 360.02 128.664 359.897 129.262 359.897ZM134.68 364.409C134.68 363.513 134.862 362.729 135.224 362.057C135.587 361.374 136.083 360.846 136.712 360.473C137.352 360.1 138.067 359.913 138.856 359.913C139.539 359.913 140.174 360.073 140.76 360.393C141.347 360.702 141.795 361.113 142.104 361.625V356.985H143.576V368.825H142.104V367.177C141.816 367.7 141.39 368.132 140.824 368.473C140.259 368.804 139.598 368.969 138.84 368.969C138.062 368.969 137.352 368.777 136.712 368.393C136.083 368.009 135.587 367.47 135.224 366.777C134.862 366.084 134.68 365.294 134.68 364.409ZM142.104 364.425C142.104 363.764 141.971 363.188 141.704 362.697C141.438 362.206 141.075 361.833 140.616 361.577C140.168 361.31 139.672 361.177 139.128 361.177C138.584 361.177 138.088 361.305 137.64 361.561C137.192 361.817 136.835 362.19 136.568 362.681C136.302 363.172 136.168 363.748 136.168 364.409C136.168 365.081 136.302 365.668 136.568 366.169C136.835 366.66 137.192 367.038 137.64 367.305C138.088 367.561 138.584 367.689 139.128 367.689C139.672 367.689 140.168 367.561 140.616 367.305C141.075 367.038 141.438 366.66 141.704 366.169C141.971 365.668 142.104 365.086 142.104 364.425ZM153.918 359.913C154.676 359.913 155.337 360.078 155.902 360.409C156.478 360.74 156.905 361.156 157.182 361.657V360.057H158.654V369.017C158.654 369.817 158.484 370.526 158.142 371.145C157.801 371.774 157.31 372.265 156.67 372.617C156.041 372.969 155.305 373.145 154.462 373.145C153.31 373.145 152.35 372.873 151.582 372.329C150.814 371.785 150.361 371.044 150.222 370.105H151.662C151.822 370.638 152.153 371.065 152.654 371.385C153.156 371.716 153.758 371.881 154.462 371.881C155.262 371.881 155.913 371.63 156.414 371.129C156.926 370.628 157.182 369.924 157.182 369.017V367.177C156.894 367.689 156.468 368.116 155.902 368.457C155.337 368.798 154.676 368.969 153.918 368.969C153.14 368.969 152.43 368.777 151.79 368.393C151.161 368.009 150.665 367.47 150.302 366.777C149.94 366.084 149.758 365.294 149.758 364.409C149.758 363.513 149.94 362.729 150.302 362.057C150.665 361.374 151.161 360.846 151.79 360.473C152.43 360.1 153.14 359.913 153.918 359.913ZM157.182 364.425C157.182 363.764 157.049 363.188 156.782 362.697C156.516 362.206 156.153 361.833 155.694 361.577C155.246 361.31 154.75 361.177 154.206 361.177C153.662 361.177 153.166 361.305 152.718 361.561C152.27 361.817 151.913 362.19 151.646 362.681C151.38 363.172 151.246 363.748 151.246 364.409C151.246 365.081 151.38 365.668 151.646 366.169C151.913 366.66 152.27 367.038 152.718 367.305C153.166 367.561 153.662 367.689 154.206 367.689C154.75 367.689 155.246 367.561 155.694 367.305C156.153 367.038 156.516 366.66 156.782 366.169C157.049 365.668 157.182 365.086 157.182 364.425ZM169.115 364.105C169.115 364.382 169.099 364.676 169.067 364.985H162.059C162.112 365.849 162.405 366.526 162.939 367.017C163.483 367.497 164.139 367.737 164.907 367.737C165.536 367.737 166.059 367.593 166.475 367.305C166.901 367.006 167.2 366.612 167.371 366.121H168.939C168.704 366.964 168.235 367.652 167.531 368.185C166.827 368.708 165.952 368.969 164.907 368.969C164.075 368.969 163.328 368.782 162.667 368.409C162.016 368.036 161.504 367.508 161.131 366.825C160.757 366.132 160.571 365.332 160.571 364.425C160.571 363.518 160.752 362.724 161.115 362.041C161.477 361.358 161.984 360.836 162.635 360.473C163.296 360.1 164.053 359.913 164.907 359.913C165.739 359.913 166.475 360.094 167.115 360.457C167.755 360.82 168.245 361.321 168.587 361.961C168.939 362.59 169.115 363.305 169.115 364.105ZM167.611 363.801C167.611 363.246 167.488 362.772 167.243 362.377C166.997 361.972 166.661 361.668 166.235 361.465C165.819 361.252 165.355 361.145 164.843 361.145C164.107 361.145 163.477 361.38 162.955 361.849C162.443 362.318 162.149 362.969 162.075 363.801H167.611ZM172.813 361.257V366.425C172.813 366.852 172.903 367.156 173.085 367.337C173.266 367.508 173.581 367.593 174.029 367.593H175.101V368.825H173.789C172.978 368.825 172.37 368.638 171.965 368.265C171.559 367.892 171.357 367.278 171.357 366.425V361.257H170.221V360.057H171.357V357.849H172.813V360.057H175.101V361.257H172.813ZM180.586 364.425C180.586 363.518 180.768 362.729 181.13 362.057C181.493 361.374 181.994 360.846 182.634 360.473C183.285 360.1 184.026 359.913 184.858 359.913C185.936 359.913 186.821 360.174 187.514 360.697C188.218 361.22 188.682 361.945 188.906 362.873H187.338C187.189 362.34 186.896 361.918 186.458 361.609C186.032 361.3 185.498 361.145 184.858 361.145C184.026 361.145 183.354 361.433 182.842 362.009C182.33 362.574 182.074 363.38 182.074 364.425C182.074 365.481 182.33 366.297 182.842 366.873C183.354 367.449 184.026 367.737 184.858 367.737C185.498 367.737 186.032 367.588 186.458 367.289C186.885 366.99 187.178 366.564 187.338 366.009H188.906C188.672 366.905 188.202 367.625 187.498 368.169C186.794 368.702 185.914 368.969 184.858 368.969C184.026 368.969 183.285 368.782 182.634 368.409C181.994 368.036 181.493 367.508 181.13 366.825C180.768 366.142 180.586 365.342 180.586 364.425ZM198.849 364.105C198.849 364.382 198.833 364.676 198.801 364.985H191.793C191.847 365.849 192.14 366.526 192.673 367.017C193.217 367.497 193.873 367.737 194.641 367.737C195.271 367.737 195.793 367.593 196.209 367.305C196.636 367.006 196.935 366.612 197.105 366.121H198.673C198.439 366.964 197.969 367.652 197.265 368.185C196.561 368.708 195.687 368.969 194.641 368.969C193.809 368.969 193.063 368.782 192.401 368.409C191.751 368.036 191.239 367.508 190.865 366.825C190.492 366.132 190.305 365.332 190.305 364.425C190.305 363.518 190.487 362.724 190.849 362.041C191.212 361.358 191.719 360.836 192.369 360.473C193.031 360.1 193.788 359.913 194.641 359.913C195.473 359.913 196.209 360.094 196.849 360.457C197.489 360.82 197.98 361.321 198.321 361.961C198.673 362.59 198.849 363.305 198.849 364.105ZM197.345 363.801C197.345 363.246 197.223 362.772 196.977 362.377C196.732 361.972 196.396 361.668 195.969 361.465C195.553 361.252 195.089 361.145 194.577 361.145C193.841 361.145 193.212 361.38 192.689 361.849C192.177 362.318 191.884 362.969 191.809 363.801H197.345ZM202.227 361.481C202.483 360.98 202.846 360.59 203.315 360.313C203.795 360.036 204.376 359.897 205.059 359.897V361.401H204.675C203.043 361.401 202.227 362.286 202.227 364.057V368.825H200.771V360.057H202.227V361.481ZM208.516 361.257V366.425C208.516 366.852 208.606 367.156 208.788 367.337C208.969 367.508 209.284 367.593 209.732 367.593H210.804V368.825H209.492C208.681 368.825 208.073 368.638 207.668 368.265C207.262 367.892 207.06 367.278 207.06 366.425V361.257H205.924V360.057H207.06V357.849H208.516V360.057H210.804V361.257H208.516ZM213.32 358.633C213.043 358.633 212.808 358.537 212.616 358.345C212.424 358.153 212.328 357.918 212.328 357.641C212.328 357.364 212.424 357.129 212.616 356.937C212.808 356.745 213.043 356.649 213.32 356.649C213.587 356.649 213.811 356.745 213.992 356.937C214.184 357.129 214.28 357.364 214.28 357.641C214.28 357.918 214.184 358.153 213.992 358.345C213.811 358.537 213.587 358.633 213.32 358.633ZM214.024 360.057V368.825H212.568V360.057H214.024ZM220.073 361.257H218.233V368.825H216.777V361.257H215.641V360.057H216.777V359.433C216.777 358.452 217.028 357.737 217.529 357.289C218.041 356.83 218.857 356.601 219.977 356.601V357.817C219.337 357.817 218.884 357.945 218.617 358.201C218.361 358.446 218.233 358.857 218.233 359.433V360.057H220.073V361.257ZM222.523 358.633C222.246 358.633 222.011 358.537 221.819 358.345C221.627 358.153 221.531 357.918 221.531 357.641C221.531 357.364 221.627 357.129 221.819 356.937C222.011 356.745 222.246 356.649 222.523 356.649C222.79 356.649 223.014 356.745 223.195 356.937C223.387 357.129 223.483 357.364 223.483 357.641C223.483 357.918 223.387 358.153 223.195 358.345C223.014 358.537 222.79 358.633 222.523 358.633ZM223.227 360.057V368.825H221.771V360.057H223.227ZM233.709 364.105C233.709 364.382 233.693 364.676 233.661 364.985H226.653C226.706 365.849 226.999 366.526 227.533 367.017C228.077 367.497 228.733 367.737 229.501 367.737C230.13 367.737 230.653 367.593 231.069 367.305C231.495 367.006 231.794 366.612 231.965 366.121H233.533C233.298 366.964 232.829 367.652 232.125 368.185C231.421 368.708 230.546 368.969 229.501 368.969C228.669 368.969 227.922 368.782 227.261 368.409C226.61 368.036 226.098 367.508 225.725 366.825C225.351 366.132 225.165 365.332 225.165 364.425C225.165 363.518 225.346 362.724 225.709 362.041C226.071 361.358 226.578 360.836 227.229 360.473C227.89 360.1 228.647 359.913 229.501 359.913C230.333 359.913 231.069 360.094 231.709 360.457C232.349 360.82 232.839 361.321 233.181 361.961C233.533 362.59 233.709 363.305 233.709 364.105ZM232.205 363.801C232.205 363.246 232.082 362.772 231.837 362.377C231.591 361.972 231.255 361.668 230.829 361.465C230.413 361.252 229.949 361.145 229.437 361.145C228.701 361.145 228.071 361.38 227.549 361.849C227.037 362.318 226.743 362.969 226.669 363.801H232.205ZM235.086 364.409C235.086 363.513 235.268 362.729 235.63 362.057C235.993 361.374 236.489 360.846 237.118 360.473C237.758 360.1 238.473 359.913 239.262 359.913C239.945 359.913 240.58 360.073 241.166 360.393C241.753 360.702 242.201 361.113 242.51 361.625V356.985H243.982V368.825H242.51V367.177C242.222 367.7 241.796 368.132 241.23 368.473C240.665 368.804 240.004 368.969 239.246 368.969C238.468 368.969 237.758 368.777 237.118 368.393C236.489 368.009 235.993 367.47 235.63 366.777C235.268 366.084 235.086 365.294 235.086 364.409ZM242.51 364.425C242.51 363.764 242.377 363.188 242.11 362.697C241.844 362.206 241.481 361.833 241.022 361.577C240.574 361.31 240.078 361.177 239.534 361.177C238.99 361.177 238.494 361.305 238.046 361.561C237.598 361.817 237.241 362.19 236.974 362.681C236.708 363.172 236.574 363.748 236.574 364.409C236.574 365.081 236.708 365.668 236.974 366.169C237.241 366.66 237.598 367.038 238.046 367.305C238.494 367.561 238.99 367.689 239.534 367.689C240.078 367.689 240.574 367.561 241.022 367.305C241.481 367.038 241.844 366.66 242.11 366.169C242.377 365.668 242.51 365.086 242.51 364.425ZM250.165 364.409C250.165 363.513 250.346 362.729 250.709 362.057C251.071 361.374 251.567 360.846 252.197 360.473C252.837 360.1 253.546 359.913 254.325 359.913C255.093 359.913 255.759 360.078 256.325 360.409C256.89 360.74 257.311 361.156 257.589 361.657V360.057H259.061V368.825H257.589V367.193C257.301 367.705 256.869 368.132 256.293 368.473C255.727 368.804 255.066 368.969 254.309 368.969C253.53 368.969 252.826 368.777 252.197 368.393C251.567 368.009 251.071 367.47 250.709 366.777C250.346 366.084 250.165 365.294 250.165 364.409ZM257.589 364.425C257.589 363.764 257.455 363.188 257.189 362.697C256.922 362.206 256.559 361.833 256.101 361.577C255.653 361.31 255.157 361.177 254.613 361.177C254.069 361.177 253.573 361.305 253.125 361.561C252.677 361.817 252.319 362.19 252.053 362.681C251.786 363.172 251.653 363.748 251.653 364.409C251.653 365.081 251.786 365.668 252.053 366.169C252.319 366.66 252.677 367.038 253.125 367.305C253.573 367.561 254.069 367.689 254.613 367.689C255.157 367.689 255.653 367.561 256.101 367.305C256.559 367.038 256.922 366.66 257.189 366.169C257.455 365.668 257.589 365.086 257.589 364.425ZM265.089 361.257H263.249V368.825H261.793V361.257H260.657V360.057H261.793V359.433C261.793 358.452 262.044 357.737 262.545 357.289C263.057 356.83 263.873 356.601 264.993 356.601V357.817C264.353 357.817 263.9 357.945 263.633 358.201C263.377 358.446 263.249 358.857 263.249 359.433V360.057H265.089V361.257ZM268.563 361.257V366.425C268.563 366.852 268.653 367.156 268.835 367.337C269.016 367.508 269.331 367.593 269.779 367.593H270.851V368.825H269.539C268.728 368.825 268.12 368.638 267.715 368.265C267.309 367.892 267.107 367.278 267.107 366.425V361.257H265.971V360.057H267.107V357.849H268.563V360.057H270.851V361.257H268.563ZM280.615 364.105C280.615 364.382 280.599 364.676 280.567 364.985H273.559C273.612 365.849 273.905 366.526 274.439 367.017C274.983 367.497 275.639 367.737 276.407 367.737C277.036 367.737 277.559 367.593 277.975 367.305C278.401 367.006 278.7 366.612 278.871 366.121H280.439C280.204 366.964 279.735 367.652 279.031 368.185C278.327 368.708 277.452 368.969 276.407 368.969C275.575 368.969 274.828 368.782 274.167 368.409C273.516 368.036 273.004 367.508 272.631 366.825C272.257 366.132 272.071 365.332 272.071 364.425C272.071 363.518 272.252 362.724 272.615 362.041C272.977 361.358 273.484 360.836 274.135 360.473C274.796 360.1 275.553 359.913 276.407 359.913C277.239 359.913 277.975 360.094 278.615 360.457C279.255 360.82 279.745 361.321 280.087 361.961C280.439 362.59 280.615 363.305 280.615 364.105ZM279.111 363.801C279.111 363.246 278.988 362.772 278.743 362.377C278.497 361.972 278.161 361.668 277.735 361.465C277.319 361.252 276.855 361.145 276.343 361.145C275.607 361.145 274.977 361.38 274.455 361.849C273.943 362.318 273.649 362.969 273.575 363.801H279.111ZM283.993 361.481C284.249 360.98 284.611 360.59 285.081 360.313C285.561 360.036 286.142 359.897 286.825 359.897V361.401H286.441C284.809 361.401 283.993 362.286 283.993 364.057V368.825H282.537V360.057H283.993V361.481ZM17.4871 380.057L12.2071 392.953H10.7031L12.4311 388.729L8.89513 380.057H10.5111L13.2631 387.161L15.9831 380.057H17.4871ZM22.7748 388.969C21.9534 388.969 21.2068 388.782 20.5348 388.409C19.8734 388.036 19.3508 387.508 18.9668 386.825C18.5934 386.132 18.4068 385.332 18.4068 384.425C18.4068 383.529 18.5988 382.74 18.9828 382.057C19.3774 381.364 19.9108 380.836 20.5828 380.473C21.2548 380.1 22.0068 379.913 22.8388 379.913C23.6708 379.913 24.4228 380.1 25.0948 380.473C25.7668 380.836 26.2948 381.358 26.6788 382.041C27.0734 382.724 27.2708 383.518 27.2708 384.425C27.2708 385.332 27.0681 386.132 26.6628 386.825C26.2681 387.508 25.7294 388.036 25.0468 388.409C24.3641 388.782 23.6068 388.969 22.7748 388.969ZM22.7748 387.689C23.2974 387.689 23.7881 387.566 24.2468 387.321C24.7054 387.076 25.0734 386.708 25.3508 386.217C25.6388 385.726 25.7828 385.129 25.7828 384.425C25.7828 383.721 25.6441 383.124 25.3668 382.633C25.0894 382.142 24.7268 381.78 24.2788 381.545C23.8308 381.3 23.3454 381.177 22.8228 381.177C22.2894 381.177 21.7988 381.3 21.3508 381.545C20.9134 381.78 20.5614 382.142 20.2948 382.633C20.0281 383.124 19.8948 383.721 19.8948 384.425C19.8948 385.14 20.0228 385.742 20.2788 386.233C20.5454 386.724 20.8974 387.092 21.3348 387.337C21.7721 387.572 22.2521 387.689 22.7748 387.689ZM36.9611 380.057V388.825H35.5051V387.529C35.2278 387.977 34.8385 388.329 34.3371 388.585C33.8465 388.83 33.3025 388.953 32.7051 388.953C32.0225 388.953 31.4091 388.814 30.8651 388.537C30.3211 388.249 29.8891 387.822 29.5691 387.257C29.2598 386.692 29.1051 386.004 29.1051 385.193V380.057H30.5451V385.001C30.5451 385.865 30.7638 386.532 31.2011 387.001C31.6385 387.46 32.2358 387.689 32.9931 387.689C33.7718 387.689 34.3851 387.449 34.8331 386.969C35.2811 386.489 35.5051 385.79 35.5051 384.873V380.057H36.9611ZM40.8755 381.481C41.1315 380.98 41.4942 380.59 41.9635 380.313C42.4435 380.036 43.0248 379.897 43.7075 379.897V381.401H43.3235C41.6915 381.401 40.8755 382.286 40.8755 384.057V388.825H39.4195V380.057H40.8755V381.481ZM51.4299 381.257V386.425C51.4299 386.852 51.5205 387.156 51.7019 387.337C51.8832 387.508 52.1979 387.593 52.6459 387.593H53.7179V388.825H52.4059C51.5952 388.825 50.9872 388.638 50.5819 388.265C50.1765 387.892 49.9739 387.278 49.9739 386.425V381.257H48.8379V380.057H49.9739V377.849H51.4299V380.057H53.7179V381.257H51.4299ZM56.938 381.481C57.194 380.98 57.5567 380.59 58.026 380.313C58.506 380.036 59.0873 379.897 59.77 379.897V381.401H59.386C57.754 381.401 56.938 382.286 56.938 384.057V388.825H55.482V380.057H56.938V381.481ZM60.9068 384.409C60.9068 383.513 61.0881 382.729 61.4508 382.057C61.8134 381.374 62.3094 380.846 62.9388 380.473C63.5788 380.1 64.2881 379.913 65.0668 379.913C65.8348 379.913 66.5014 380.078 67.0668 380.409C67.6321 380.74 68.0534 381.156 68.3308 381.657V380.057H69.8028V388.825H68.3308V387.193C68.0428 387.705 67.6108 388.132 67.0348 388.473C66.4694 388.804 65.8081 388.969 65.0508 388.969C64.2721 388.969 63.5681 388.777 62.9388 388.393C62.3094 388.009 61.8134 387.47 61.4508 386.777C61.0881 386.084 60.9068 385.294 60.9068 384.409ZM68.3308 384.425C68.3308 383.764 68.1974 383.188 67.9308 382.697C67.6641 382.206 67.3014 381.833 66.8428 381.577C66.3948 381.31 65.8988 381.177 65.3548 381.177C64.8108 381.177 64.3148 381.305 63.8668 381.561C63.4188 381.817 63.0614 382.19 62.7948 382.681C62.5281 383.172 62.3948 383.748 62.3948 384.409C62.3948 385.081 62.5281 385.668 62.7948 386.169C63.0614 386.66 63.4188 387.038 63.8668 387.305C64.3148 387.561 64.8108 387.689 65.3548 387.689C65.8988 387.689 66.3948 387.561 66.8428 387.305C67.3014 387.038 67.6641 386.66 67.9308 386.169C68.1974 385.668 68.3308 385.086 68.3308 384.425ZM73.0153 378.633C72.7379 378.633 72.5033 378.537 72.3113 378.345C72.1193 378.153 72.0233 377.918 72.0233 377.641C72.0233 377.364 72.1193 377.129 72.3113 376.937C72.5033 376.745 72.7379 376.649 73.0153 376.649C73.2819 376.649 73.5059 376.745 73.6873 376.937C73.8793 377.129 73.9753 377.364 73.9753 377.641C73.9753 377.918 73.8793 378.153 73.6873 378.345C73.5059 378.537 73.2819 378.633 73.0153 378.633ZM73.7193 380.057V388.825H72.2633V380.057H73.7193ZM80.4728 379.897C81.5394 379.897 82.4034 380.222 83.0648 380.873C83.7261 381.513 84.0568 382.441 84.0568 383.657V388.825H82.6168V383.865C82.6168 382.99 82.3981 382.324 81.9608 381.865C81.5234 381.396 80.9261 381.161 80.1688 381.161C79.4008 381.161 78.7874 381.401 78.3288 381.881C77.8808 382.361 77.6568 383.06 77.6568 383.977V388.825H76.2008V380.057H77.6568V381.305C77.9448 380.857 78.3341 380.51 78.8248 380.265C79.3261 380.02 79.8754 379.897 80.4728 379.897ZM87.1871 378.633C86.9098 378.633 86.6751 378.537 86.4831 378.345C86.2911 378.153 86.1951 377.918 86.1951 377.641C86.1951 377.364 86.2911 377.129 86.4831 376.937C86.6751 376.745 86.9098 376.649 87.1871 376.649C87.4538 376.649 87.6778 376.745 87.8591 376.937C88.0511 377.129 88.1471 377.364 88.1471 377.641C88.1471 377.918 88.0511 378.153 87.8591 378.345C87.6778 378.537 87.4538 378.633 87.1871 378.633ZM87.8911 380.057V388.825H86.4351V380.057H87.8911ZM94.6446 379.897C95.7113 379.897 96.5753 380.222 97.2366 380.873C97.898 381.513 98.2286 382.441 98.2286 383.657V388.825H96.7886V383.865C96.7886 382.99 96.57 382.324 96.1326 381.865C95.6953 381.396 95.098 381.161 94.3406 381.161C93.5726 381.161 92.9593 381.401 92.5006 381.881C92.0526 382.361 91.8286 383.06 91.8286 383.977V388.825H90.3726V380.057H91.8286V381.305C92.1166 380.857 92.506 380.51 92.9966 380.265C93.498 380.02 94.0473 379.897 94.6446 379.897ZM104.223 379.913C104.98 379.913 105.642 380.078 106.207 380.409C106.783 380.74 107.21 381.156 107.487 381.657V380.057H108.959V389.017C108.959 389.817 108.788 390.526 108.447 391.145C108.106 391.774 107.615 392.265 106.975 392.617C106.346 392.969 105.61 393.145 104.767 393.145C103.615 393.145 102.655 392.873 101.887 392.329C101.119 391.785 100.666 391.044 100.527 390.105H101.967C102.127 390.638 102.458 391.065 102.959 391.385C103.46 391.716 104.063 391.881 104.767 391.881C105.567 391.881 106.218 391.63 106.719 391.129C107.231 390.628 107.487 389.924 107.487 389.017V387.177C107.199 387.689 106.772 388.116 106.207 388.457C105.642 388.798 104.98 388.969 104.223 388.969C103.444 388.969 102.735 388.777 102.095 388.393C101.466 388.009 100.97 387.47 100.607 386.777C100.244 386.084 100.063 385.294 100.063 384.409C100.063 383.513 100.244 382.729 100.607 382.057C100.97 381.374 101.466 380.846 102.095 380.473C102.735 380.1 103.444 379.913 104.223 379.913ZM107.487 384.425C107.487 383.764 107.354 383.188 107.087 382.697C106.82 382.206 106.458 381.833 105.999 381.577C105.551 381.31 105.055 381.177 104.511 381.177C103.967 381.177 103.471 381.305 103.023 381.561C102.575 381.817 102.218 382.19 101.951 382.681C101.684 383.172 101.551 383.748 101.551 384.409C101.551 385.081 101.684 385.668 101.951 386.169C102.218 386.66 102.575 387.038 103.023 387.305C103.471 387.561 103.967 387.689 104.511 387.689C105.055 387.689 105.551 387.561 105.999 387.305C106.458 387.038 106.82 386.66 107.087 386.169C107.354 385.668 107.487 385.086 107.487 384.425ZM117.461 381.257V386.425C117.461 386.852 117.552 387.156 117.733 387.337C117.914 387.508 118.229 387.593 118.677 387.593H119.749V388.825H118.437C117.626 388.825 117.018 388.638 116.613 388.265C116.208 387.892 116.005 387.278 116.005 386.425V381.257H114.869V380.057H116.005V377.849H117.461V380.057H119.749V381.257H117.461ZM125.337 388.969C124.516 388.969 123.769 388.782 123.097 388.409C122.436 388.036 121.913 387.508 121.529 386.825C121.156 386.132 120.969 385.332 120.969 384.425C120.969 383.529 121.161 382.74 121.545 382.057C121.94 381.364 122.473 380.836 123.145 380.473C123.817 380.1 124.569 379.913 125.401 379.913C126.233 379.913 126.985 380.1 127.657 380.473C128.329 380.836 128.857 381.358 129.241 382.041C129.636 382.724 129.833 383.518 129.833 384.425C129.833 385.332 129.631 386.132 129.225 386.825C128.831 387.508 128.292 388.036 127.609 388.409C126.927 388.782 126.169 388.969 125.337 388.969ZM125.337 387.689C125.86 387.689 126.351 387.566 126.809 387.321C127.268 387.076 127.636 386.708 127.913 386.217C128.201 385.726 128.345 385.129 128.345 384.425C128.345 383.721 128.207 383.124 127.929 382.633C127.652 382.142 127.289 381.78 126.841 381.545C126.393 381.3 125.908 381.177 125.385 381.177C124.852 381.177 124.361 381.3 123.913 381.545C123.476 381.78 123.124 382.142 122.857 382.633C122.591 383.124 122.457 383.721 122.457 384.425C122.457 385.14 122.585 385.742 122.841 386.233C123.108 386.724 123.46 387.092 123.897 387.337C124.335 387.572 124.815 387.689 125.337 387.689ZM139.629 379.913C140.387 379.913 141.048 380.078 141.613 380.409C142.189 380.74 142.616 381.156 142.893 381.657V380.057H144.365V389.017C144.365 389.817 144.195 390.526 143.853 391.145C143.512 391.774 143.021 392.265 142.381 392.617C141.752 392.969 141.016 393.145 140.173 393.145C139.021 393.145 138.061 392.873 137.293 392.329C136.525 391.785 136.072 391.044 135.933 390.105H137.373C137.533 390.638 137.864 391.065 138.365 391.385C138.867 391.716 139.469 391.881 140.173 391.881C140.973 391.881 141.624 391.63 142.125 391.129C142.637 390.628 142.893 389.924 142.893 389.017V387.177C142.605 387.689 142.179 388.116 141.613 388.457C141.048 388.798 140.387 388.969 139.629 388.969C138.851 388.969 138.141 388.777 137.501 388.393C136.872 388.009 136.376 387.47 136.013 386.777C135.651 386.084 135.469 385.294 135.469 384.409C135.469 383.513 135.651 382.729 136.013 382.057C136.376 381.374 136.872 380.846 137.501 380.473C138.141 380.1 138.851 379.913 139.629 379.913ZM142.893 384.425C142.893 383.764 142.76 383.188 142.493 382.697C142.227 382.206 141.864 381.833 141.405 381.577C140.957 381.31 140.461 381.177 139.917 381.177C139.373 381.177 138.877 381.305 138.429 381.561C137.981 381.817 137.624 382.19 137.357 382.681C137.091 383.172 136.957 383.748 136.957 384.409C136.957 385.081 137.091 385.668 137.357 386.169C137.624 386.66 137.981 387.038 138.429 387.305C138.877 387.561 139.373 387.689 139.917 387.689C140.461 387.689 140.957 387.561 141.405 387.305C141.864 387.038 142.227 386.66 142.493 386.169C142.76 385.668 142.893 385.086 142.893 384.425ZM154.826 384.105C154.826 384.382 154.81 384.676 154.778 384.985H147.77C147.823 385.849 148.116 386.526 148.65 387.017C149.194 387.497 149.85 387.737 150.618 387.737C151.247 387.737 151.77 387.593 152.186 387.305C152.612 387.006 152.911 386.612 153.082 386.121H154.65C154.415 386.964 153.946 387.652 153.242 388.185C152.538 388.708 151.663 388.969 150.618 388.969C149.786 388.969 149.039 388.782 148.378 388.409C147.727 388.036 147.215 387.508 146.842 386.825C146.468 386.132 146.282 385.332 146.282 384.425C146.282 383.518 146.463 382.724 146.826 382.041C147.188 381.358 147.695 380.836 148.346 380.473C149.007 380.1 149.764 379.913 150.618 379.913C151.45 379.913 152.186 380.094 152.826 380.457C153.466 380.82 153.956 381.321 154.298 381.961C154.65 382.59 154.826 383.305 154.826 384.105ZM153.322 383.801C153.322 383.246 153.199 382.772 152.954 382.377C152.708 381.972 152.372 381.668 151.946 381.465C151.53 381.252 151.066 381.145 150.554 381.145C149.818 381.145 149.188 381.38 148.666 381.849C148.154 382.318 147.86 382.969 147.786 383.801H153.322ZM158.524 381.257V386.425C158.524 386.852 158.614 387.156 158.796 387.337C158.977 387.508 159.292 387.593 159.74 387.593H160.812V388.825H159.5C158.689 388.825 158.081 388.638 157.676 388.265C157.27 387.892 157.068 387.278 157.068 386.425V381.257H155.932V380.057H157.068V377.849H158.524V380.057H160.812V381.257H158.524ZM166.297 384.409C166.297 383.513 166.479 382.729 166.841 382.057C167.204 381.374 167.7 380.846 168.329 380.473C168.969 380.1 169.679 379.913 170.457 379.913C171.225 379.913 171.892 380.078 172.457 380.409C173.023 380.74 173.444 381.156 173.721 381.657V380.057H175.193V388.825H173.721V387.193C173.433 387.705 173.001 388.132 172.425 388.473C171.86 388.804 171.199 388.969 170.441 388.969C169.663 388.969 168.959 388.777 168.329 388.393C167.7 388.009 167.204 387.47 166.841 386.777C166.479 386.084 166.297 385.294 166.297 384.409ZM173.721 384.425C173.721 383.764 173.588 383.188 173.321 382.697C173.055 382.206 172.692 381.833 172.233 381.577C171.785 381.31 171.289 381.177 170.745 381.177C170.201 381.177 169.705 381.305 169.257 381.561C168.809 381.817 168.452 382.19 168.185 382.681C167.919 383.172 167.785 383.748 167.785 384.409C167.785 385.081 167.919 385.668 168.185 386.169C168.452 386.66 168.809 387.038 169.257 387.305C169.705 387.561 170.201 387.689 170.745 387.689C171.289 387.689 171.785 387.561 172.233 387.305C172.692 387.038 173.055 386.66 173.321 386.169C173.588 385.668 173.721 385.086 173.721 384.425ZM183.376 376.985V388.825H181.92V376.985H183.376ZM193.633 380.057V388.825H192.177V387.529C191.9 387.977 191.51 388.329 191.009 388.585C190.518 388.83 189.974 388.953 189.377 388.953C188.694 388.953 188.081 388.814 187.537 388.537C186.993 388.249 186.561 387.822 186.241 387.257C185.932 386.692 185.777 386.004 185.777 385.193V380.057H187.217V385.001C187.217 385.865 187.436 386.532 187.873 387.001C188.31 387.46 188.908 387.689 189.665 387.689C190.444 387.689 191.057 387.449 191.505 386.969C191.953 386.489 192.177 385.79 192.177 384.873V380.057H193.633ZM195.547 384.425C195.547 383.518 195.729 382.729 196.091 382.057C196.454 381.374 196.955 380.846 197.595 380.473C198.246 380.1 198.987 379.913 199.819 379.913C200.897 379.913 201.782 380.174 202.475 380.697C203.179 381.22 203.643 381.945 203.867 382.873H202.299C202.15 382.34 201.857 381.918 201.419 381.609C200.993 381.3 200.459 381.145 199.819 381.145C198.987 381.145 198.315 381.433 197.803 382.009C197.291 382.574 197.035 383.38 197.035 384.425C197.035 385.481 197.291 386.297 197.803 386.873C198.315 387.449 198.987 387.737 199.819 387.737C200.459 387.737 200.993 387.588 201.419 387.289C201.846 386.99 202.139 386.564 202.299 386.009H203.867C203.633 386.905 203.163 387.625 202.459 388.169C201.755 388.702 200.875 388.969 199.819 388.969C198.987 388.969 198.246 388.782 197.595 388.409C196.955 388.036 196.454 387.508 196.091 386.825C195.729 386.142 195.547 385.342 195.547 384.425ZM207.266 381.481C207.522 380.98 207.885 380.59 208.354 380.313C208.834 380.036 209.415 379.897 210.098 379.897V381.401H209.714C208.082 381.401 207.266 382.286 207.266 384.057V388.825H205.81V380.057H207.266V381.481ZM211.235 384.409C211.235 383.513 211.416 382.729 211.779 382.057C212.142 381.374 212.638 380.846 213.267 380.473C213.907 380.1 214.616 379.913 215.395 379.913C216.163 379.913 216.83 380.078 217.395 380.409C217.96 380.74 218.382 381.156 218.659 381.657V380.057H220.131V388.825H218.659V387.193C218.371 387.705 217.939 388.132 217.363 388.473C216.798 388.804 216.136 388.969 215.379 388.969C214.6 388.969 213.896 388.777 213.267 388.393C212.638 388.009 212.142 387.47 211.779 386.777C211.416 386.084 211.235 385.294 211.235 384.409ZM218.659 384.425C218.659 383.764 218.526 383.188 218.259 382.697C217.992 382.206 217.63 381.833 217.171 381.577C216.723 381.31 216.227 381.177 215.683 381.177C215.139 381.177 214.643 381.305 214.195 381.561C213.747 381.817 213.39 382.19 213.123 382.681C212.856 383.172 212.723 383.748 212.723 384.409C212.723 385.081 212.856 385.668 213.123 386.169C213.39 386.66 213.747 387.038 214.195 387.305C214.643 387.561 215.139 387.689 215.683 387.689C216.227 387.689 216.723 387.561 217.171 387.305C217.63 387.038 217.992 386.66 218.259 386.169C218.526 385.668 218.659 385.086 218.659 384.425ZM224.367 381.257V386.425C224.367 386.852 224.458 387.156 224.639 387.337C224.821 387.508 225.135 387.593 225.583 387.593H226.655V388.825H225.343C224.533 388.825 223.925 388.638 223.519 388.265C223.114 387.892 222.911 387.278 222.911 386.425V381.257H221.775V380.057H222.911V377.849H224.367V380.057H226.655V381.257H224.367ZM229.172 378.633C228.894 378.633 228.66 378.537 228.468 378.345C228.276 378.153 228.18 377.918 228.18 377.641C228.18 377.364 228.276 377.129 228.468 376.937C228.66 376.745 228.894 376.649 229.172 376.649C229.438 376.649 229.662 376.745 229.844 376.937C230.036 377.129 230.132 377.364 230.132 377.641C230.132 377.918 230.036 378.153 229.844 378.345C229.662 378.537 229.438 378.633 229.172 378.633ZM229.876 380.057V388.825H228.42V380.057H229.876ZM235.621 387.481L238.341 380.057H239.893L236.453 388.825H234.757L231.317 380.057H232.885L235.621 387.481ZM249.326 384.105C249.326 384.382 249.31 384.676 249.278 384.985H242.27C242.323 385.849 242.616 386.526 243.15 387.017C243.694 387.497 244.35 387.737 245.118 387.737C245.747 387.737 246.27 387.593 246.686 387.305C247.112 387.006 247.411 386.612 247.582 386.121H249.15C248.915 386.964 248.446 387.652 247.742 388.185C247.038 388.708 246.163 388.969 245.118 388.969C244.286 388.969 243.539 388.782 242.878 388.409C242.227 388.036 241.715 387.508 241.342 386.825C240.968 386.132 240.782 385.332 240.782 384.425C240.782 383.518 240.963 382.724 241.326 382.041C241.688 381.358 242.195 380.836 242.846 380.473C243.507 380.1 244.264 379.913 245.118 379.913C245.95 379.913 246.686 380.094 247.326 380.457C247.966 380.82 248.456 381.321 248.798 381.961C249.15 382.59 249.326 383.305 249.326 384.105ZM247.822 383.801C247.822 383.246 247.699 382.772 247.454 382.377C247.208 381.972 246.872 381.668 246.446 381.465C246.03 381.252 245.566 381.145 245.054 381.145C244.318 381.145 243.688 381.38 243.166 381.849C242.654 382.318 242.36 382.969 242.286 383.801H247.822ZM256.297 378.633C256.02 378.633 255.785 378.537 255.593 378.345C255.412 378.153 255.321 377.918 255.321 377.641C255.321 377.364 255.412 377.129 255.593 376.937C255.785 376.745 256.02 376.649 256.297 376.649C256.575 376.649 256.804 376.745 256.985 376.937C257.177 377.129 257.273 377.364 257.273 377.641C257.273 377.918 257.177 378.153 256.985 378.345C256.804 378.537 256.575 378.633 256.297 378.633ZM257.017 390.729C257.017 391.508 256.82 392.078 256.425 392.441C256.031 392.804 255.455 392.985 254.697 392.985H253.849V391.753H254.457C254.863 391.753 255.145 391.673 255.305 391.513C255.476 391.353 255.561 391.081 255.561 390.697V380.057H257.017V390.729ZM263.306 388.969C262.485 388.969 261.738 388.782 261.066 388.409C260.405 388.036 259.882 387.508 259.498 386.825C259.125 386.132 258.938 385.332 258.938 384.425C258.938 383.529 259.13 382.74 259.514 382.057C259.909 381.364 260.442 380.836 261.114 380.473C261.786 380.1 262.538 379.913 263.37 379.913C264.202 379.913 264.954 380.1 265.626 380.473C266.298 380.836 266.826 381.358 267.21 382.041C267.605 382.724 267.802 383.518 267.802 384.425C267.802 385.332 267.599 386.132 267.194 386.825C266.799 387.508 266.261 388.036 265.578 388.409C264.895 388.782 264.138 388.969 263.306 388.969ZM263.306 387.689C263.829 387.689 264.319 387.566 264.778 387.321C265.237 387.076 265.605 386.708 265.882 386.217C266.17 385.726 266.314 385.129 266.314 384.425C266.314 383.721 266.175 383.124 265.898 382.633C265.621 382.142 265.258 381.78 264.81 381.545C264.362 381.3 263.877 381.177 263.354 381.177C262.821 381.177 262.33 381.3 261.882 381.545C261.445 381.78 261.093 382.142 260.826 382.633C260.559 383.124 260.426 383.721 260.426 384.425C260.426 385.14 260.554 385.742 260.81 386.233C261.077 386.724 261.429 387.092 261.866 387.337C262.303 387.572 262.783 387.689 263.306 387.689ZM271.172 381.689C271.471 381.166 271.908 380.74 272.484 380.409C273.06 380.078 273.716 379.913 274.452 379.913C275.242 379.913 275.951 380.1 276.58 380.473C277.21 380.846 277.706 381.374 278.068 382.057C278.431 382.729 278.612 383.513 278.612 384.409C278.612 385.294 278.431 386.084 278.068 386.777C277.706 387.47 277.204 388.009 276.564 388.393C275.935 388.777 275.231 388.969 274.452 388.969C273.695 388.969 273.028 388.804 272.452 388.473C271.887 388.142 271.46 387.721 271.172 387.209V388.825H269.716V376.985H271.172V381.689ZM277.124 384.409C277.124 383.748 276.991 383.172 276.724 382.681C276.458 382.19 276.095 381.817 275.636 381.561C275.188 381.305 274.692 381.177 274.148 381.177C273.615 381.177 273.119 381.31 272.66 381.577C272.212 381.833 271.85 382.212 271.572 382.713C271.306 383.204 271.172 383.774 271.172 384.425C271.172 385.086 271.306 385.668 271.572 386.169C271.85 386.66 272.212 387.038 272.66 387.305C273.119 387.561 273.615 387.689 274.148 387.689C274.692 387.689 275.188 387.561 275.636 387.305C276.095 387.038 276.458 386.66 276.724 386.169C276.991 385.668 277.124 385.081 277.124 384.409Z" fill="black"/>
<defs>
<clipPath id="clip0_203_1106">
<rect width="199.613" height="231.825" fill="white" transform="translate(44.1936)"/>
</clipPath>
</defs>
</svg>
